<svg width="29" height="29" viewBox="0 0 29 29" fill="none" xmlns="http://www.w3.org/2000/svg">
<path d="M7.94922 19.665H22.0029C22.9082 19.665 23.4619 19.1729 23.4619 18.4346C23.4619 17.5029 22.6182 16.7031 21.8271 15.9473C21.2031 15.3408 21.0625 14.0752 20.9482 12.9062C20.8076 9.68945 19.8672 7.42188 17.5908 6.60449C17.2305 5.44434 16.2725 4.54785 14.9717 4.54785C13.6797 4.54785 12.7217 5.44434 12.3525 6.60449C10.085 7.42188 9.13574 9.68945 9.00391 12.9062C8.88965 14.0752 8.74023 15.3408 8.125 15.9473C7.33398 16.7031 6.49023 17.5029 6.49023 18.4346C6.49023 19.1729 7.04395 19.665 7.94922 19.665ZM14.9717 23.2861C16.5361 23.2861 17.6699 22.1699 17.7842 20.8955H12.168C12.2822 22.1699 13.416 23.2861 14.9717 23.2861Z" fill="#1C1C1E"/>
</svg>
