<svg width="28" height="28" viewBox="0 0 28 28" fill="none" xmlns="http://www.w3.org/2000/svg">
<path d="M15.6846 23.7393H17.8818C18.7607 23.7393 19.2266 23.2559 19.2266 22.3945V10.5557L20.5625 22.5879C20.6504 23.4492 21.1602 23.8887 22.0303 23.7832L24.7812 23.4141C25.6514 23.3086 26.0557 22.7988 25.9678 21.9375L24.4033 7.7959C24.3154 6.93457 23.8057 6.49512 22.9355 6.60059L20.1758 6.96973C19.7451 7.01367 19.4287 7.17188 19.2266 7.41797V5.5459C19.2266 4.68457 18.7607 4.20117 17.8818 4.20117H15.6846C14.8145 4.20117 14.3486 4.68457 14.3486 5.5459V22.3945C14.3486 23.2559 14.8145 23.7393 15.6846 23.7393ZM3.34473 23.7393H4.80371C5.68262 23.7393 6.14844 23.2559 6.14844 22.3945V8.02441C6.14844 7.16309 5.68262 6.67969 4.80371 6.67969H3.34473C2.46582 6.67969 2 7.16309 2 8.02441V22.3945C2 23.2559 2.46582 23.7393 3.34473 23.7393ZM8.53027 23.7393H11.958C12.8369 23.7393 13.3027 23.2559 13.3027 22.3945V11.1445C13.3027 10.2832 12.8369 9.80859 11.958 9.80859H8.53027C7.66016 9.80859 7.19434 10.2832 7.19434 11.1445V22.3945C7.19434 23.2559 7.66016 23.7393 8.53027 23.7393ZM9.22461 13.0957C8.88184 13.0957 8.62695 12.832 8.62695 12.498C8.62695 12.1729 8.88184 11.918 9.22461 11.918H11.29C11.624 11.918 11.8789 12.1729 11.8789 12.498C11.8789 12.832 11.624 13.0957 11.29 13.0957H9.22461ZM9.22461 21.6299C8.88184 21.6299 8.62695 21.375 8.62695 21.041C8.62695 20.707 8.88184 20.4521 9.22461 20.4521H11.29C11.624 20.4521 11.8789 20.707 11.8789 21.041C11.8789 21.375 11.624 21.6299 11.29 21.6299H9.22461Z" fill="#1C1C1E"/>
</svg>
