<svg width="29" height="29" viewBox="0 0 29 29" fill="none" xmlns="http://www.w3.org/2000/svg">
<path d="M14.9707 22.9434C19.9541 22.9434 24.0674 18.8301 24.0674 13.8555C24.0674 8.88086 19.9453 4.76758 14.9619 4.76758C9.9873 4.76758 5.88281 8.88086 5.88281 13.8555C5.88281 18.8301 9.99609 22.9434 14.9707 22.9434ZM10.541 14.9629C10.1455 14.9629 9.83789 14.6553 9.83789 14.2598C9.83789 13.8643 10.1455 13.5566 10.541 13.5566H14.2676V8.51172C14.2676 8.11621 14.5752 7.80859 14.9619 7.80859C15.3662 7.80859 15.6738 8.11621 15.6738 8.51172V14.2598C15.6738 14.6553 15.3662 14.9629 14.9619 14.9629H10.541Z" fill="#1C1C1E"/>
</svg>
