<svg width="49" height="49" viewBox="0 0 49 49" fill="none" xmlns="http://www.w3.org/2000/svg">
<path d="M37.3666 10.5908H11.6172C8.36272 10.5908 6.66016 12.3135 6.66016 15.605V16.9893H42.3237V15.605C42.3237 12.3135 40.6362 10.5908 37.3666 10.5908ZM12.9581 32.324C12.0692 32.324 11.4665 31.7241 11.4665 30.8474V28.002C11.4665 27.1406 12.0692 26.5254 12.9581 26.5254H16.6496C17.5234 26.5254 18.1261 27.1406 18.1261 28.002V30.8474C18.1261 31.7241 17.5234 32.324 16.6496 32.324H12.9581ZM11.6172 37.2458H37.3666C40.6362 37.2458 42.3237 35.5078 42.3237 32.2163V20.6038H6.66016V32.2163C6.66016 35.5232 8.36272 37.2458 11.6172 37.2458Z" fill="#F2994A"/>
</svg>
