<svg width="70" height="70" viewBox="0 0 70 70" fill="none" xmlns="http://www.w3.org/2000/svg">
<path d="M68.4495 1.60356C67.9583 1.11136 67.3749 0.720861 66.7326 0.454425C66.0903 0.187989 65.4017 0.050845 64.7064 0.050845C64.011 0.050845 63.3225 0.187989 62.6802 0.454425C62.0378 0.720861 61.4544 1.11136 60.9632 1.60356L35 27.5137L9.03679 1.55047C8.54523 1.05891 7.96167 0.668982 7.31942 0.402952C6.67716 0.136922 5.9888 5.17941e-09 5.29363 0C4.59846 -5.17942e-09 3.9101 0.136922 3.26784 0.402952C2.62559 0.668982 2.04203 1.05891 1.55047 1.55047C1.05891 2.04203 0.668982 2.62559 0.402952 3.26784C0.136922 3.9101 -5.17941e-09 4.59846 0 5.29363C5.17942e-09 5.9888 0.136922 6.67716 0.402952 7.31942C0.668982 7.96167 1.05891 8.54523 1.55047 9.03679L27.5137 35L1.55047 60.9632C1.05891 61.4548 0.668982 62.0383 0.402952 62.6806C0.136922 63.3228 0 64.0112 0 64.7064C0 65.4015 0.136922 66.0899 0.402952 66.7322C0.668982 67.3744 1.05891 67.958 1.55047 68.4495C2.04203 68.9411 2.62559 69.331 3.26784 69.597C3.9101 69.8631 4.59846 70 5.29363 70C5.9888 70 6.67716 69.8631 7.31942 69.597C7.96167 69.331 8.54523 68.9411 9.03679 68.4495L35 42.4863L60.9632 68.4495C61.4548 68.9411 62.0383 69.331 62.6806 69.597C63.3228 69.8631 64.0112 70 64.7064 70C65.4015 70 66.0899 69.8631 66.7322 69.597C67.3744 69.331 67.958 68.9411 68.4495 68.4495C68.9411 67.958 69.331 67.3744 69.597 66.7322C69.8631 66.0899 70 65.4015 70 64.7064C70 64.0112 69.8631 63.3228 69.597 62.6806C69.331 62.0383 68.9411 61.4548 68.4495 60.9632L42.4863 35L68.4495 9.03679C70.4671 7.0192 70.4671 3.62115 68.4495 1.60356Z" fill="white"/>
</svg>
