<svg width="29" height="29" viewBox="0 0 29 29" fill="none" xmlns="http://www.w3.org/2000/svg">
<path d="M14.9814 22.9346C19.9473 22.9346 24.0605 18.8301 24.0605 13.8555C24.0605 8.88965 19.9473 4.77637 14.9727 4.77637C10.0068 4.77637 5.90234 8.88965 5.90234 13.8555C5.90234 18.8301 10.0156 22.9346 14.9814 22.9346ZM14.9814 21.5283C11.1934 21.5283 7.98535 18.6895 7.40527 15.042C7.45801 15.0508 7.50195 15.0508 7.55469 15.0508C8.49512 15.0508 9.11914 14.251 9.11914 13.0293C9.11914 12.6426 9.18945 12.5283 9.44434 12.4053L10.0068 12.1416C10.3057 11.9922 10.5781 12.1064 10.7627 12.3613L11.8086 13.8906C12.7754 15.2881 13.7598 15.8594 14.665 15.8594C15.5352 15.8594 16.124 15.3057 16.124 14.4531C16.124 13.9521 15.8691 13.5215 15.4561 13.249C15.1924 13.0645 15.2715 12.8535 15.5088 12.8535C17.6533 12.8535 18.7871 12.0801 18.7871 10.5244C18.7871 8.46777 17.0469 8.35352 17.0469 7.82617C17.0469 7.50977 17.4424 7.33398 17.7148 6.70117C20.5801 7.81738 22.6543 10.6211 22.6543 13.8555C22.6543 14.6641 22.5225 15.4463 22.2852 16.1846C21.8281 15.8066 21.459 15.6484 21.0283 15.6484C20.6943 15.6484 20.5098 15.7363 20.3252 15.7979C20.1406 15.8506 20.0527 15.7715 20.0264 15.6133C19.9385 14.9717 19.5342 14.7168 18.8838 14.7168H18.4268C17.8906 14.7168 17.46 14.998 17.1348 15.499L16.9941 15.7188C16.7744 16.0615 16.5811 16.3428 16.3877 16.5273C16.2031 16.6943 16.0625 16.7734 15.7021 16.8877L15.2979 17.0107C14.6826 17.2041 14.498 17.7402 14.665 18.3379L15.0869 19.8232C15.2451 20.3682 15.5703 20.6494 16.0977 20.6494C16.3262 20.6494 16.6074 20.5615 16.8975 20.4209L17.0293 20.3594C17.2314 20.2627 17.3809 20.2275 17.5303 20.2275C17.873 20.2275 18.1016 20.3945 18.3652 20.7285C17.3457 21.2383 16.1943 21.5283 14.9814 21.5283Z" fill="#1C1C1E"/>
</svg>
