<svg width="25" height="25" viewBox="0 0 25 25" fill="none" xmlns="http://www.w3.org/2000/svg">
<path d="M15.4419 20.1923H10.6548V14.06C10.6548 13.6332 10.9424 13.3549 11.3691 13.3549H14.7368C15.1636 13.3549 15.4419 13.6332 15.4419 14.06V20.1923ZM4.875 19.6356C4.875 20.9252 5.6543 21.6859 6.9624 21.6859H19.1621C20.4702 21.6859 21.2403 20.9252 21.2403 19.6356V12.288L13.6143 5.89587C13.2617 5.599 12.8443 5.60827 12.501 5.89587L4.875 12.288V19.6356ZM1.98047 11.3602C1.98047 11.7406 2.27734 12.1024 2.77832 12.1024C3.03809 12.1024 3.25147 11.9633 3.44629 11.8055L12.7329 4.01257C12.937 3.82702 13.1875 3.82702 13.3916 4.01257L22.6783 11.8055C22.8638 11.9633 23.0772 12.1024 23.3369 12.1024C23.773 12.1024 24.1255 11.8334 24.1255 11.3881C24.1255 11.1097 24.0327 10.9242 23.8379 10.7572L14.1802 2.63953C13.4937 2.05505 12.6402 2.05505 11.9443 2.63953L2.27734 10.7572C2.07324 10.9242 1.98047 11.1469 1.98047 11.3602ZM18.9117 7.17615L21.2403 9.14294V4.85681C21.2403 4.44861 20.9805 4.18884 20.5723 4.18884H19.5796C19.1807 4.18884 18.9117 4.44861 18.9117 4.85681V7.17615Z" fill="black"/>
</svg>
