<svg width="29" height="29" viewBox="0 0 29 29" fill="none" xmlns="http://www.w3.org/2000/svg">
<path d="M10.6115 21.168H12.6769C13.5119 21.168 13.9425 20.7373 13.9425 19.9023V7.80859C13.9425 6.95605 13.5119 6.55176 12.6769 6.54297H10.6115C9.7765 6.54297 9.34583 6.97363 9.34583 7.80859V19.9023C9.33705 20.7373 9.76771 21.168 10.6115 21.168ZM17.2911 21.168H19.3478C20.1827 21.168 20.6134 20.7373 20.6134 19.9023V7.80859C20.6134 6.95605 20.1827 6.54297 19.3478 6.54297H17.2911C16.4474 6.54297 16.0255 6.97363 16.0255 7.80859V19.9023C16.0255 20.7373 16.4474 21.168 17.2911 21.168Z" fill="#1C1C1E"/>
</svg>
