<svg width="27" height="27" viewBox="0 0 27 27" fill="none" xmlns="http://www.w3.org/2000/svg">
<rect x="0.5" width="26" height="27" rx="5" fill="#DE3636"/>
<rect x="1" y="0.5" width="25" height="26" rx="4.5" stroke="black" stroke-opacity="0.2"/>
<path d="M9.78 12.68C9.78 13.0533 9.69 13.4033 9.51 13.73C9.33667 14.0567 9.06 14.32 8.68 14.52C8.30667 14.72 7.83333 14.82 7.26 14.82H6.09V17.5H4.69V10.52H7.26C7.8 10.52 8.26 10.6133 8.64 10.8C9.02 10.9867 9.30333 11.2433 9.49 11.57C9.68333 11.8967 9.78 12.2667 9.78 12.68ZM7.2 13.69C7.58667 13.69 7.87333 13.6033 8.06 13.43C8.24667 13.25 8.34 13 8.34 12.68C8.34 12 7.96 11.66 7.2 11.66H6.09V13.69H7.2ZM13.214 10.52C13.9473 10.52 14.5907 10.6633 15.144 10.95C15.704 11.2367 16.134 11.6467 16.434 12.18C16.7407 12.7067 16.894 13.32 16.894 14.02C16.894 14.72 16.7407 15.3333 16.434 15.86C16.134 16.38 15.704 16.7833 15.144 17.07C14.5907 17.3567 13.9473 17.5 13.214 17.5H10.774V10.52H13.214ZM13.164 16.31C13.8973 16.31 14.464 16.11 14.864 15.71C15.264 15.31 15.464 14.7467 15.464 14.02C15.464 13.2933 15.264 12.7267 14.864 12.32C14.464 11.9067 13.8973 11.7 13.164 11.7H12.174V16.31H13.164ZM22.252 10.52V11.65H19.342V13.44H21.572V14.55H19.342V17.5H17.942V10.52H22.252Z" fill="white"/>
</svg>
