<svg width="29" height="29" viewBox="0 0 29 29" fill="none" xmlns="http://www.w3.org/2000/svg">
<path d="M10.8232 22.6797H19.1465C20.3506 22.6797 21.0537 22.0381 21.1064 20.8428L21.6602 8.14258H22.873C23.3213 8.14258 23.6641 7.79102 23.6641 7.35156C23.6641 6.91211 23.3125 6.57812 22.873 6.57812H19.0586V5.25977C19.0586 3.85352 18.1533 3.01855 16.6416 3.01855H13.3018C11.79 3.01855 10.8848 3.85352 10.8848 5.25977V6.57812H7.08789C6.64844 6.57812 6.29688 6.9209 6.29688 7.35156C6.29688 7.7998 6.64844 8.14258 7.08789 8.14258H8.30957L8.87207 20.8428C8.91602 22.0381 9.61914 22.6797 10.8232 22.6797ZM12.7129 5.33887C12.7129 4.94336 12.9854 4.68848 13.4248 4.68848H16.5273C16.9668 4.68848 17.2393 4.94336 17.2393 5.33887V6.57812H12.7129V5.33887ZM12.1592 19.9814C11.8076 19.9814 11.5615 19.7529 11.5527 19.4014L11.2891 10.0674C11.2803 9.71582 11.5264 9.47852 11.8955 9.47852C12.2471 9.47852 12.4932 9.70703 12.502 10.0586L12.7656 19.3926C12.7832 19.7441 12.5371 19.9814 12.1592 19.9814ZM14.9805 19.9814C14.6113 19.9814 14.3652 19.7529 14.3652 19.4014V10.0586C14.3652 9.71582 14.6113 9.47852 14.9805 9.47852C15.3496 9.47852 15.6045 9.71582 15.6045 10.0586V19.4014C15.6045 19.7529 15.3496 19.9814 14.9805 19.9814ZM17.8018 19.9902C17.4238 19.9902 17.1777 19.7441 17.1953 19.4014L17.459 10.0586C17.4678 9.70703 17.7139 9.47852 18.0654 9.47852C18.4346 9.47852 18.6807 9.71582 18.6719 10.0674L18.4082 19.4014C18.3994 19.7529 18.1533 19.9902 17.8018 19.9902Z" fill="#1C1C1E"/>
</svg>
