<svg width="29" height="29" viewBox="0 0 29 29" fill="none" xmlns="http://www.w3.org/2000/svg">
<path d="M12.6426 9.18848C12.7656 9.18848 12.8359 9.10059 12.8623 8.98633C13.1523 7.52734 13.1348 7.49219 14.6553 7.19336C14.7871 7.16699 14.8662 7.09668 14.8662 6.97363C14.8662 6.85059 14.7871 6.78027 14.6641 6.75391C13.126 6.4375 13.1348 6.40234 12.8623 4.95215C12.8447 4.83789 12.7656 4.75879 12.6426 4.75879C12.5195 4.75879 12.4492 4.83789 12.4316 4.95215C12.1328 6.41992 12.1592 6.47266 10.6299 6.75391C10.5068 6.77148 10.4277 6.85059 10.4277 6.97363C10.4277 7.08789 10.5068 7.16699 10.6299 7.19336C12.1592 7.50098 12.1504 7.53613 12.4316 8.98633C12.4492 9.10059 12.5195 9.18848 12.6426 9.18848ZM20.1748 12.3174C20.3154 12.3174 20.4033 12.2119 20.4297 12.0801C20.7461 10.375 20.7285 10.2871 22.5215 9.97949C22.6709 9.95312 22.7676 9.86523 22.7676 9.72461C22.7676 9.58398 22.6709 9.49609 22.5303 9.46973C20.7285 9.14453 20.7021 9.06543 20.4297 7.36914C20.4033 7.22852 20.3154 7.13184 20.1748 7.13184C20.0342 7.13184 19.9375 7.22852 19.9199 7.36914C19.6123 9.08301 19.6211 9.18848 17.8105 9.46973C17.6787 9.4873 17.5732 9.58398 17.5732 9.72461C17.582 9.86523 17.6699 9.95312 17.8105 9.97949C19.6211 10.2959 19.6387 10.3838 19.9199 12.0801C19.9375 12.2119 20.0342 12.3174 20.1748 12.3174ZM7.7998 14.9541C7.94043 14.9541 8.03711 14.8574 8.05469 14.7168C8.33594 13.0117 8.3623 12.9238 10.1553 12.6162C10.2959 12.5898 10.3926 12.502 10.3926 12.3613C10.3926 12.2207 10.2959 12.1328 10.1641 12.1064C8.35352 11.7812 8.35352 11.7021 8.05469 10.0059C8.02832 9.86523 7.94043 9.76855 7.7998 9.76855C7.65918 9.76855 7.57129 9.86523 7.54492 10.0059C7.26367 11.7197 7.24609 11.8076 5.44434 12.1064C5.30371 12.1328 5.20703 12.2207 5.20703 12.3613C5.20703 12.502 5.30371 12.5898 5.43555 12.6162C7.24609 12.9326 7.24609 13.0293 7.54492 14.7256C7.57129 14.8574 7.65918 14.9541 7.7998 14.9541ZM22.8467 22.4951C23.2773 22.9346 24.0156 22.9258 24.4375 22.4951C24.8682 22.0469 24.8594 21.3438 24.4375 20.9043L16.0879 12.5107C15.6572 12.0801 14.9189 12.0801 14.4971 12.5107C14.0664 12.959 14.0752 13.6709 14.4971 14.1016L22.8467 22.4951ZM17.8896 16.4043L15.2441 13.7588C15.0684 13.5742 15.0068 13.3633 15.1826 13.1875C15.3408 13.0293 15.5605 13.0732 15.7539 13.2578L18.3906 15.9033L17.8896 16.4043ZM12.0361 22.7148C12.2207 22.7148 12.3525 22.5918 12.3789 22.3896C12.6602 20.0166 12.7744 19.9463 15.1914 19.5684C15.4111 19.5332 15.543 19.4189 15.543 19.2256C15.543 19.041 15.4111 18.918 15.2354 18.8828C12.7832 18.4082 12.6602 18.4258 12.3789 16.0615C12.3525 15.8594 12.2207 15.7363 12.0361 15.7363C11.8516 15.7363 11.7197 15.8594 11.6934 16.0527C11.3945 18.4609 11.3066 18.5488 8.8457 18.8828C8.66992 18.9004 8.5293 19.041 8.5293 19.2256C8.5293 19.4102 8.66113 19.5332 8.83691 19.5684C11.3154 20.043 11.3857 20.043 11.6934 22.4072C11.7197 22.5918 11.8516 22.7148 12.0361 22.7148Z" fill="#1C1C1E"/>
</svg>
