<svg width="29" height="28" viewBox="0 0 29 28" fill="none" xmlns="http://www.w3.org/2000/svg">
<path d="M7.39844 19.5781H11.0195C11.0811 21.248 12.4521 22.7949 14.4736 22.7949C16.4863 22.7949 17.8662 21.2656 17.9365 19.5781H21.5488C22.4629 19.5781 23.0254 19.0771 23.0254 18.3213C23.0254 17.3809 22.1729 16.5811 21.373 15.8164C20.749 15.21 20.5996 13.9971 20.4854 12.7578C20.3623 9.44434 19.3867 7.22949 17.1016 6.40332C16.7588 5.23438 15.7832 4.34668 14.4736 4.34668C13.1641 4.34668 12.1885 5.23438 11.8545 6.40332C9.56055 7.22949 8.59375 9.44434 8.46191 12.7578C8.34766 13.9971 8.19824 15.21 7.57422 15.8164C6.77441 16.5811 5.92188 17.3809 5.92188 18.3213C5.92188 19.0771 6.48438 19.5781 7.39844 19.5781ZM8.06641 17.9434V17.8379C8.29492 17.583 8.80469 17.1172 9.23535 16.625C9.8418 15.9307 10.123 14.6475 10.2109 12.9775C10.3164 9.45312 11.4062 8.2666 12.8125 7.88867C13.0322 7.82715 13.1465 7.72168 13.1641 7.48438C13.208 6.59668 13.709 5.99902 14.4736 5.99902C15.2471 5.99902 15.7393 6.59668 15.7832 7.48438C15.8008 7.72168 15.9238 7.82715 16.1348 7.88867C17.5498 8.2666 18.6309 9.45312 18.7363 12.9775C18.833 14.6475 19.1143 15.9307 19.7119 16.625C20.1426 17.1172 20.6348 17.583 20.8633 17.8379V17.9434H8.06641ZM14.4736 21.3799C13.4805 21.3799 12.7686 20.668 12.707 19.5781H16.249C16.1963 20.6592 15.4756 21.3799 14.4736 21.3799Z" fill="#1C1C1E"/>
</svg>
