<svg width="29" height="28" viewBox="0 0 29 28" fill="none" xmlns="http://www.w3.org/2000/svg">
<path d="M20.4463 21.6309C20.6133 23.0723 21.3867 23.749 22.8369 23.5645L24.5332 23.3711C25.9834 23.1865 26.6074 22.4043 26.4492 20.9629L25.0342 8.15723C24.876 6.71582 24.085 6.03027 22.6436 6.22363L20.9473 6.41699C20.5693 6.46094 20.2529 6.54883 19.9893 6.68066V6.18848C19.9893 4.73828 19.2686 4 17.8184 4H15.4629C14.0039 4 13.2832 4.73828 13.2832 6.18848V9.63379C13.1338 9.61621 12.9756 9.60742 12.7998 9.60742H8.73926C8.56348 9.60742 8.39648 9.61621 8.24707 9.63379V8.67578C8.24707 7.2168 7.52637 6.47852 6.07617 6.47852H4.79297C3.33398 6.47852 2.61328 7.2168 2.61328 8.67578V21.3496C2.61328 22.7998 3.33398 23.5381 4.79297 23.5381H17.8184C19.2686 23.5381 19.9893 22.7998 19.9893 21.3496V17.5352L20.4463 21.6309ZM15.7178 5.67871H17.5635C18.0645 5.67871 18.3105 5.94238 18.3105 6.41699V21.1123C18.3105 21.5957 18.0645 21.8594 17.5635 21.8594H14.9707V6.41699C14.9707 5.94238 15.2168 5.67871 15.7178 5.67871ZM22.0898 21.2178L20.7188 8.86914C20.666 8.39453 20.8857 8.13086 21.3779 8.06055L22.5645 7.91992C23.0566 7.84961 23.3379 8.0957 23.3906 8.56152L24.7617 20.9102C24.8145 21.3936 24.5947 21.6572 24.1025 21.7275L22.9072 21.8682C22.415 21.9385 22.1426 21.7012 22.0898 21.2178ZM5.03906 21.8594C4.54688 21.8594 4.29199 21.5957 4.29199 21.1123V8.89551C4.29199 8.4209 4.54688 8.16602 5.03906 8.16602H5.8125C6.32227 8.16602 6.55957 8.4209 6.55957 8.89551V21.8594H5.03906ZM8.99414 11.2861H12.5361C13.0459 11.2861 13.2832 11.541 13.2832 12.0156V21.8594H8.24707V12.0156C8.24707 11.541 8.49316 11.2861 8.99414 11.2861ZM9.53906 13.501H12.0264C12.3428 13.501 12.5889 13.2461 12.5889 12.9297C12.5889 12.6133 12.3428 12.3672 12.0264 12.3672H9.53906C9.20508 12.3672 8.96777 12.6133 8.96777 12.9297C8.96777 13.2461 9.21387 13.501 9.53906 13.501ZM9.53906 20.7871H12.0264C12.3428 20.7871 12.5889 20.5322 12.5889 20.207C12.5889 19.8994 12.3428 19.6445 12.0264 19.6445H9.53906C9.21387 19.6445 8.96777 19.8994 8.96777 20.207C8.96777 20.5322 9.20508 20.7871 9.53906 20.7871Z" fill="#1C1C1E"/>
</svg>
