<svg width="30" height="30" viewBox="0 0 29 29" fill="none" xmlns="http://www.w3.org/2000/svg">
<path d="M9.07129 23.9463C9.5459 23.9463 9.85352 23.7002 10.6006 22.9707L13.9932 19.6133C14.0283 19.5693 14.1074 19.5693 14.1426 19.6133L17.5439 22.9707C18.291 23.7002 18.5898 23.9463 19.0732 23.9463C19.7764 23.9463 20.2158 23.4629 20.2158 22.6719V7.32617C20.2158 5.57715 19.3018 4.6543 17.5703 4.6543H10.5654C8.83398 4.6543 7.91992 5.57715 7.91992 7.32617V22.6719C7.91992 23.4629 8.35938 23.9463 9.07129 23.9463ZM9.90625 21.0547C9.79199 21.1689 9.65137 21.1338 9.65137 20.9668V7.44043C9.65137 6.7373 10.0029 6.39453 10.7061 6.39453H17.4297C18.1328 6.39453 18.4844 6.7373 18.4844 7.44043V20.9668C18.4844 21.1338 18.3525 21.1689 18.2295 21.0547L14.6523 17.5918C14.2832 17.2227 13.8613 17.2227 13.4834 17.5918L9.90625 21.0547Z" fill="#1C1C1E"/>
</svg>
