<svg width="29" height="28" viewBox="0 0 29 28" fill="none" xmlns="http://www.w3.org/2000/svg">
<path d="M2.69727 13.0215C2.69727 16.3086 4.95605 18.4971 8.33105 18.4971C8.84082 18.4971 9.32422 18.4531 9.78125 18.3652C10.7656 19.2178 12.2246 19.7715 13.8857 19.7715C14.5273 19.7715 15.2041 19.6836 15.8896 19.5166C16.54 20.2109 17.5244 20.5977 18.6758 20.5977C18.8516 20.5977 19.0537 20.5889 19.2471 20.5801C19.4844 22.1182 20.4775 23.5332 22.0068 23.5332C24.2305 23.5332 25.3994 20.9316 25.3994 18.1719C25.3994 17.2754 25.3643 16.6074 25.3115 16.0098C25.9092 15.2539 26.2432 14.252 26.2432 13.0654C26.2432 10.7891 24.7051 9.02246 22.3584 8.54785C21.8838 6.4209 20.0996 5.04102 18.0605 5.04102C17.8936 5.04102 17.665 5.06738 17.4365 5.11133C16.707 4.25 15.5557 3.73145 14.3252 3.73145C12.9541 3.73145 11.7764 4.24121 10.9766 5.12012C10.335 4.83887 9.66699 4.70703 9.0166 4.70703C6.81934 4.70703 5.07031 6.20996 5.07031 8.35449C5.07031 8.38965 5.07031 8.43359 5.07031 8.46875C3.58496 9.48828 2.69727 11.1934 2.69727 13.0215ZM9.81641 8.08203C9.79883 8.60938 10.1592 8.96094 10.625 8.96094C11.0732 8.96094 11.4072 8.66211 11.4248 8.15234C11.4951 6.52637 12.6641 5.34863 14.3164 5.34863C15.3096 5.34863 16.1797 5.87598 16.5312 6.64941C16.6191 6.81641 16.751 6.83398 16.9619 6.78125C17.2432 6.71094 17.5596 6.66699 17.8672 6.66699C19.4141 6.68457 20.8467 7.85352 20.8467 9.67285C20.8467 13.751 15.0723 13.2764 15.0723 17.3633C15.0723 17.5918 15.0898 17.8203 15.1338 18.0312C14.7822 18.1016 14.4219 18.1367 14.0703 18.1367C13.2354 18.1367 12.4004 17.9434 11.7412 17.6006C13.0947 16.748 13.8857 15.3418 13.8857 13.5752C13.8857 13.4258 13.8857 13.2852 13.8682 13.1445C15.8018 12.5996 16.7246 11.2373 16.707 9.25977C16.6982 8.81152 16.3203 8.44238 15.8809 8.44238C15.4326 8.44238 15.0635 8.81152 15.0723 9.25977C15.0898 10.499 14.624 11.2637 13.4287 11.5889C13.2354 11.2461 13.0068 10.9561 12.7256 10.7188C12.374 10.4287 12.1543 10.3232 11.8203 10.3232C11.3545 10.3232 11.0381 10.6133 11.0381 11.0352C11.0381 11.5098 11.2666 11.6152 11.7412 12.0547C12.0928 12.3887 12.2861 12.9072 12.2861 13.5488C12.2861 15.5439 10.7217 16.8799 8.35742 16.8799C5.93164 16.8799 4.32324 15.333 4.32324 13.0127C4.32324 11.9316 4.77148 10.9121 5.52734 10.1826C6.11621 11.2021 7.23242 11.835 8.7002 11.835C9.14844 11.835 9.51758 11.4658 9.51758 11.0264C9.51758 10.5781 9.14844 10.209 8.7002 10.209C7.46094 10.209 6.69629 9.43555 6.69629 8.35449C6.69629 7.16797 7.68066 6.33301 9.00781 6.33301C9.36816 6.33301 9.74609 6.39453 10.1152 6.53516C9.93945 7.00977 9.83398 7.52832 9.81641 8.08203ZM20.2578 16.8184C20.2578 17.2666 20.6094 17.6006 21.0664 17.6357C22.0859 17.6973 22.9912 17.5479 23.7471 17.2139C23.7646 17.5039 23.7822 17.8115 23.7822 18.1455C23.7822 20.3164 22.9824 21.8984 22.0068 21.8984C20.9961 21.8984 20.5566 20.5449 20.5566 19.3848C20.5566 19.2441 20.4688 19.1475 20.3018 19.1475C20.082 19.1562 19.8008 19.1562 19.5371 19.1562C17.832 19.1562 16.7422 18.6025 16.7422 17.3105C16.7422 14.3398 22.0859 14.7969 22.4639 10.2002C23.7822 10.4902 24.6172 11.5625 24.6172 13.0654C24.6172 15.0078 23.2109 16.1855 21.084 16.0098C20.627 15.9746 20.2578 16.3701 20.2578 16.8184Z" fill="#1C1C1E"/>
</svg>
