<svg width="29" height="28" viewBox="0 0 29 28" fill="none" xmlns="http://www.w3.org/2000/svg">
<path d="M8.82422 13.6543C8.82422 13.9619 8.93848 14.2256 9.18457 14.4541L16.0225 21.1514C16.2158 21.3447 16.4619 21.4502 16.752 21.4502C17.332 21.4502 17.7979 20.9932 17.7979 20.4043C17.7979 20.1143 17.6748 19.8594 17.4814 19.6572L11.3203 13.6543L17.4814 7.65137C17.6748 7.44922 17.7979 7.18555 17.7979 6.9043C17.7979 6.31543 17.332 5.8584 16.752 5.8584C16.4619 5.8584 16.2158 5.96387 16.0225 6.15723L9.18457 12.8457C8.93848 13.083 8.82422 13.3467 8.82422 13.6543Z" fill="#1C1C1E"/>
</svg>
