<svg width="28" height="29" viewBox="0 0 28 29" fill="none" xmlns="http://www.w3.org/2000/svg">
<path d="M13.9912 19.6064C14.2988 19.5977 14.5801 19.4834 14.8086 19.2373L21.4883 12.3994C21.6816 12.2061 21.7871 11.96 21.7871 11.6699C21.7871 11.0898 21.3301 10.624 20.75 10.624C20.4688 10.624 20.1963 10.7383 19.9941 10.9404L14 17.1016L7.98828 10.9404C7.78613 10.7471 7.52246 10.624 7.23242 10.624C6.65234 10.624 6.19531 11.0898 6.19531 11.6699C6.19531 11.96 6.30078 12.2061 6.49414 12.3994L13.1826 19.2373C13.4199 19.4834 13.6836 19.6064 13.9912 19.6064Z" fill="#1C1C1E"/>
</svg>
