<svg width="28" height="29" viewBox="0 0 28 29" fill="none" xmlns="http://www.w3.org/2000/svg">
<path d="M6.49414 16.6865L13.1826 9.84863C13.4111 9.60254 13.6836 9.48828 13.9912 9.48828C14.2988 9.48828 14.5801 9.61133 14.8086 9.84863L21.4883 16.6865C21.6816 16.8799 21.7871 17.126 21.7871 17.416C21.7871 18.0049 21.3301 18.4619 20.75 18.4619C20.4688 18.4619 20.1963 18.3564 19.9941 18.1455L14 11.9844L7.98828 18.1455C7.79492 18.3477 7.52246 18.4619 7.23242 18.4619C6.65234 18.4619 6.19531 18.0049 6.19531 17.416C6.19531 17.1348 6.30078 16.8799 6.49414 16.6865Z" fill="#1C1C1E"/>
</svg>
