<svg width="29" height="28" viewBox="0 0 29 28" fill="none" xmlns="http://www.w3.org/2000/svg">
<path d="M20.126 13.6543C20.1172 13.3467 20.0029 13.083 19.7656 12.8457L12.9277 6.15723C12.7256 5.96387 12.4883 5.8584 12.1982 5.8584C11.6094 5.8584 11.1523 6.31543 11.1523 6.9043C11.1523 7.18555 11.2666 7.44922 11.4688 7.65137L17.6211 13.6543L11.4688 19.6572C11.2666 19.8594 11.1523 20.1143 11.1523 20.4043C11.1523 20.9932 11.6094 21.4502 12.1982 21.4502C12.4795 21.4502 12.7256 21.3447 12.9277 21.1514L19.7656 14.4541C20.0117 14.2256 20.126 13.9619 20.126 13.6543Z" fill="#1C1C1E"/>
</svg>
