<svg width="29" height="28" viewBox="0 0 29 28" fill="none" xmlns="http://www.w3.org/2000/svg">
<path d="M14.4668 22.7422C19.4502 22.7422 23.5635 18.6289 23.5635 13.6543C23.5635 8.67969 19.4414 4.56641 14.458 4.56641C9.4834 4.56641 5.37891 8.67969 5.37891 13.6543C5.37891 18.6289 9.49219 22.7422 14.4668 22.7422ZM14.4668 20.9316C10.4326 20.9316 7.20703 17.6885 7.20703 13.6543C7.20703 9.62012 10.4326 6.38574 14.458 6.38574C18.4922 6.38574 21.7354 9.62012 21.7441 13.6543C21.7529 17.6885 18.501 20.9316 14.4668 20.9316ZM10.0371 14.7617H14.458C14.8623 14.7617 15.1699 14.4541 15.1699 14.0586V8.31055C15.1699 7.91504 14.8623 7.60742 14.458 7.60742C14.0713 7.60742 13.7637 7.91504 13.7637 8.31055V13.3555H10.0371C9.6416 13.3555 9.33398 13.6631 9.33398 14.0586C9.33398 14.4541 9.6416 14.7617 10.0371 14.7617Z" fill="#1C1C1E"/>
</svg>
