<svg width="21" height="16" viewBox="0 0 21 16" fill="none" xmlns="http://www.w3.org/2000/svg">
<path d="M2.8916 15.8103H17.9121C19.8193 15.8103 20.8037 14.8171 20.8037 12.9363V3.44409C20.8037 1.56323 19.8193 0.578857 17.9121 0.578857H2.8916C0.993164 0.578857 0 1.56323 0 3.44409V12.9363C0 14.8259 0.993164 15.8103 2.8916 15.8103ZM1.74902 3.60229C1.74902 2.75854 2.19727 2.33667 3.00586 2.33667H17.7979C18.6064 2.33667 19.0547 2.75854 19.0547 3.60229V4.23511H1.74902V3.60229ZM3.00586 14.0525C2.19727 14.0525 1.74902 13.6306 1.74902 12.7869V6.30054H19.0547V12.7869C19.0547 13.6306 18.6064 14.0525 17.7979 14.0525H3.00586ZM4.20117 12.4617H6.35449C6.87305 12.4617 7.22461 12.1189 7.22461 11.6267V9.99194C7.22461 9.49976 6.87305 9.15698 6.35449 9.15698H4.20117C3.69141 9.15698 3.33984 9.49976 3.33984 9.99194V11.6267C3.33984 12.1189 3.69141 12.4617 4.20117 12.4617Z" fill="#1C1C1E"/>
</svg>
