<svg width="19" height="19" viewBox="0 0 19 19" fill="none" xmlns="http://www.w3.org/2000/svg">
<path d="M9.08789 18.5762C14.0713 18.5762 18.1846 14.4629 18.1846 9.48828C18.1846 4.51367 14.0625 0.400391 9.0791 0.400391C4.10449 0.400391 0 4.51367 0 9.48828C0 14.4629 4.11328 18.5762 9.08789 18.5762ZM9.08789 16.7656C5.05371 16.7656 1.82812 13.5225 1.82812 9.48828C1.82812 5.4541 5.05371 2.21973 9.0791 2.21973C13.1133 2.21973 16.3564 5.4541 16.3652 9.48828C16.374 13.5225 13.1221 16.7656 9.08789 16.7656ZM9.0791 10.9473C9.5625 10.9473 9.84375 10.6748 9.85254 10.165L9.98438 5.9375C10.002 5.41895 9.61523 5.04102 9.07031 5.04102C8.52539 5.04102 8.14746 5.41016 8.16504 5.92871L8.28809 10.165C8.30566 10.666 8.58691 10.9473 9.0791 10.9473ZM9.0791 13.8652C9.65039 13.8652 10.1162 13.4521 10.1162 12.8896C10.1162 12.3359 9.65918 11.9229 9.0791 11.9229C8.50781 11.9229 8.04199 12.3359 8.04199 12.8896C8.04199 13.4434 8.5166 13.8652 9.0791 13.8652Z" fill="#1C1C1E"/>
</svg>
