<svg width="18" height="19" viewBox="0 0 18 19" fill="none" xmlns="http://www.w3.org/2000/svg">
<path d="M15 1H2.99999C1.89499 1 0.973993 1.91 1.24699 2.98C1.53762 4.11389 2.073 5.1704 2.81551 6.07531C3.55803 6.98021 4.48967 7.71157 5.54499 8.218C6.36799 8.612 6.99999 9.386 6.99999 10.298V16.382C7.00008 16.5524 7.04371 16.7199 7.12674 16.8687C7.20976 17.0175 7.32943 17.1426 7.47439 17.2322C7.61934 17.3218 7.78478 17.3728 7.955 17.3805C8.12522 17.3881 8.29457 17.3522 8.44699 17.276L10.447 16.276C10.6131 16.193 10.7528 16.0654 10.8504 15.9075C10.9481 15.7496 10.9999 15.5677 11 15.382V10.298C11 9.386 11.632 8.612 12.454 8.218C13.5097 7.71186 14.4418 6.98062 15.1847 6.0757C15.9276 5.17077 16.4632 4.11411 16.754 2.98C17.025 1.91 16.103 1 15 1Z" stroke="black" stroke-width="2"/>
</svg>
