<svg width="28" height="29" viewBox="0 0 28 29" fill="none" xmlns="http://www.w3.org/2000/svg">
<path d="M13.9893 23.3574C18.9551 23.3574 23.0684 19.2529 23.0684 14.2783C23.0684 9.3125 18.9551 5.19922 13.9805 5.19922C9.01465 5.19922 4.91016 9.3125 4.91016 14.2783C4.91016 19.2529 9.02344 23.3574 13.9893 23.3574ZM11.5723 13.6016L10.6758 12.2832C10.1748 11.5361 9.36621 11.2549 8.54883 11.6504L7.86328 11.9932C7.30078 12.2656 7.07227 12.6963 7.07227 13.4873C7.07227 14.1113 6.8877 14.4102 6.51855 14.4102C6.44824 14.4102 6.37793 14.4014 6.31641 14.3838C6.31641 14.3486 6.31641 14.3135 6.31641 14.2783C6.31641 10.0859 9.78809 6.60547 13.9805 6.60547C14.5869 6.60547 15.1758 6.68457 15.7471 6.81641C15.4658 7.32617 14.9912 7.58984 14.9912 8.31055C14.9912 9.62012 16.7314 9.52344 16.7314 10.9824C16.7314 11.8613 16.0371 12.2744 14.5078 12.2744C13.6201 12.2744 13.0137 12.7402 13.0137 13.4346C13.0137 13.9004 13.251 14.2168 13.7695 14.4893C14.042 14.6123 14.1475 14.7529 14.1475 14.9463C14.1475 15.1748 13.9805 15.2979 13.708 15.2979C13.1279 15.2979 12.3721 14.7881 11.5723 13.6016ZM13.9893 21.9512C10.21 21.9512 7.01953 19.1299 6.42188 15.5088C6.46582 15.5088 6.50977 15.5088 6.5625 15.5088C7.49414 15.5088 8.12695 14.709 8.12695 13.4873C8.12695 13.1094 8.18848 12.9863 8.45215 12.8633L9.01465 12.5996C9.31348 12.4502 9.58594 12.5645 9.76172 12.8281L10.7549 14.2871C11.748 15.7373 12.7588 16.3262 13.6816 16.3262C14.5781 16.3262 15.123 15.7812 15.123 14.9111C15.123 14.4102 14.8682 13.9707 14.4551 13.707C14.3145 13.6104 14.2354 13.5664 14.2354 13.4785C14.2266 13.3818 14.3145 13.3379 14.4639 13.3379C16.6523 13.3379 17.7949 12.5381 17.7949 10.9824C17.7949 8.92578 16.0459 8.81152 16.0459 8.28418C16.0459 7.93262 16.5117 7.77441 16.7842 7.15039C19.623 8.28418 21.6621 11.0703 21.6621 14.2783C21.6621 15.0957 21.5303 15.8955 21.2842 16.6338C20.8271 16.2646 20.458 16.1064 20.0361 16.1064C19.6934 16.1064 19.5088 16.1943 19.3066 16.2559C19.1396 16.3174 19.0605 16.2471 19.0342 16.0889C18.9375 15.4297 18.5332 15.1836 17.8828 15.1836H17.4258C16.8984 15.1836 16.4678 15.4561 16.1426 15.957L16.002 16.1768C15.7734 16.5283 15.5801 16.8096 15.3955 16.9941C15.2109 17.1523 15.0615 17.2314 14.7012 17.3457L14.2969 17.4688C13.6904 17.6621 13.4971 18.1982 13.6641 18.7959L14.0947 20.2812C14.2441 20.8262 14.5693 21.1074 15.0967 21.1074C15.3252 21.1074 15.6064 21.0283 15.9053 20.8877L16.0371 20.8174C16.2305 20.7207 16.3799 20.6855 16.5381 20.6855C16.8721 20.6855 17.1094 20.8525 17.3555 21.1514C16.3359 21.6611 15.1934 21.9512 13.9893 21.9512ZM16.5205 19.666C16.248 19.666 15.9316 19.7627 15.5889 19.9033L15.3252 20C15.1846 20.0527 15.0879 20.0439 15.0527 19.9121L14.6748 18.6465C14.6396 18.5146 14.6924 18.4355 14.8242 18.3916C15.4922 18.1982 15.8525 17.9434 16.0811 17.7236C16.4326 17.3809 16.7227 16.8975 16.9775 16.5283C17.1357 16.2822 17.2588 16.1943 17.417 16.1943H17.874C17.9971 16.1943 18.0234 16.2383 18.0498 16.335C18.1729 16.9502 18.5068 17.3105 19.1133 17.3105C19.5527 17.3105 19.7637 17.126 20.0361 17.126C20.2559 17.126 20.502 17.2666 20.8799 17.627C20.2822 18.8398 19.3594 19.8857 18.2432 20.6416C17.8477 20.1406 17.3467 19.666 16.5205 19.666Z" fill="#1C1C1E"/>
</svg>
