<svg width="28" height="29" viewBox="0 0 28 29" fill="none" xmlns="http://www.w3.org/2000/svg">
<path d="M13.9824 23.3749C18.9658 23.3749 23.0791 19.2616 23.0791 14.2782C23.0791 9.91887 19.9238 6.22746 15.8018 5.37493V4.08293C15.8018 3.41496 15.3008 3.22161 14.7559 3.61711L11.7852 5.7177C11.3369 6.04289 11.3369 6.53508 11.7852 6.85149L14.7471 8.96086C15.292 9.35637 15.8018 9.18059 15.8018 8.49504V7.22942C18.9482 8.02922 21.251 10.8681 21.251 14.2782C21.251 18.3124 18.0166 21.5556 13.9824 21.5556C9.94824 21.5556 6.70508 18.3124 6.71387 14.2782C6.72266 11.9316 7.82129 9.88372 9.54395 8.55657C9.95703 8.19622 10.0889 7.67766 9.77246 7.247C9.48242 6.83391 8.91113 6.7636 8.43652 7.15032C6.30078 8.74993 4.89453 11.4394 4.89453 14.2782C4.89453 19.2616 9.00781 23.3749 13.9824 23.3749ZM16.1094 18.0312C17.542 18.0312 18.5352 16.6601 18.5352 14.5068C18.5352 12.3271 17.542 10.956 16.1094 10.956C14.668 10.956 13.6924 12.2831 13.6924 14.5068C13.6924 16.7128 14.668 18.0312 16.1094 18.0312ZM11.5742 17.9521C11.9697 17.9521 12.2246 17.6884 12.2246 17.2665V11.8349C12.2246 11.3163 11.9346 11.0175 11.4775 11.0175C11.1963 11.0175 10.9941 11.1054 10.6514 11.3603L9.50879 12.1689C9.28027 12.3534 9.1748 12.5292 9.1748 12.7753C9.1748 13.0917 9.4209 13.3554 9.7373 13.3554C9.92188 13.3554 10.0361 13.3114 10.2119 13.1532L10.9502 12.5644V17.2665C10.9502 17.6796 11.1963 17.9521 11.5742 17.9521ZM16.1182 16.8359C15.415 16.8359 14.9844 15.9745 14.9844 14.5068C14.9844 13.0126 15.4062 12.1513 16.1182 12.1513C16.8213 12.1513 17.2344 13.0038 17.2344 14.5068C17.2344 15.9745 16.8125 16.8359 16.1182 16.8359Z" fill="#1C1C1E"/>
</svg>
