<svg width="28" height="29" viewBox="0 0 28 29" fill="none" xmlns="http://www.w3.org/2000/svg">
<path d="M13.9824 23.375C18.9658 23.375 23.0791 19.2617 23.0791 14.2783C23.0791 11.4394 21.6641 8.74998 19.5371 7.15037C19.0625 6.76365 18.4824 6.83396 18.1924 7.24705C17.876 7.67771 18.0166 8.19627 18.4209 8.55662C20.1523 9.88377 21.251 11.9316 21.2598 14.2783C21.2686 18.3125 18.0166 21.5556 13.9824 21.5556C9.94824 21.5556 6.72266 18.3125 6.72266 14.2783C6.72266 10.8681 9.02539 8.02927 12.1719 7.22947V8.50388C12.1719 9.18064 12.6729 9.36521 13.2178 8.9697L16.1885 6.86912C16.6279 6.54392 16.6367 6.05174 16.1885 5.73533L13.2266 3.62595C12.6729 3.23045 12.1719 3.40623 12.1719 4.09177V5.37498C8.04102 6.22752 4.89453 9.91892 4.89453 14.2783C4.89453 19.2617 9.00781 23.375 13.9824 23.375ZM16.1094 18.0312C17.542 18.0312 18.5352 16.6601 18.5352 14.5068C18.5352 12.3271 17.542 10.956 16.1094 10.956C14.6768 10.956 13.6924 12.2832 13.6924 14.5068C13.6924 16.7129 14.6768 18.0312 16.1094 18.0312ZM11.6006 17.9521C11.9961 17.9521 12.251 17.6885 12.251 17.2666V11.8349C12.251 11.3164 11.9609 11.0176 11.4951 11.0176C11.2227 11.0176 11.0205 11.1054 10.6689 11.3603L9.53516 12.1689C9.30664 12.3535 9.20117 12.5293 9.20117 12.7754C9.20117 13.0918 9.44727 13.3554 9.75488 13.3554C9.94824 13.3554 10.0537 13.3115 10.2383 13.1533L10.9766 12.5644V17.2666C10.9766 17.6797 11.2227 17.9521 11.6006 17.9521ZM16.1182 16.8359C15.415 16.8359 14.9844 15.9746 14.9844 14.5068C14.9844 13.0127 15.415 12.1513 16.1182 12.1513C16.8213 12.1513 17.2432 13.0039 17.2432 14.5068C17.2432 15.9746 16.8125 16.8359 16.1182 16.8359Z" fill="#1C1C1E"/>
</svg>
