<svg width="24" height="25" viewBox="0 0 24 25" fill="none" xmlns="http://www.w3.org/2000/svg">
<path d="M9.38623 21.1532H14.7392V14.3993C14.7392 13.9725 14.4609 13.6942 14.0341 13.6942H10.1006C9.66455 13.6942 9.38623 13.9725 9.38623 14.3993V21.1532ZM5.75878 22.1087H18.311C19.6284 22.1087 20.3984 21.3573 20.3984 20.0584V9.807L18.9048 8.7865V19.6781C18.9048 20.2811 18.58 20.6151 17.9956 20.6151H6.07421C5.48046 20.6151 5.15576 20.2811 5.15576 19.6781V8.79577L3.66211 9.807V20.0584C3.66211 21.3573 4.43212 22.1087 5.75878 22.1087ZM0.990234 11.7831C0.990234 12.1635 1.28711 12.5253 1.78809 12.5253C2.04785 12.5253 2.26123 12.3861 2.45605 12.2284L11.7426 4.43542C11.9467 4.24987 12.1972 4.24987 12.4013 4.43542L21.688 12.2284C21.8735 12.3861 22.0869 12.5253 22.3466 12.5253C22.7827 12.5253 23.1352 12.2562 23.1352 11.8109C23.1352 11.5326 23.0424 11.347 22.8476 11.1801L13.1899 3.06238C12.5034 2.47791 11.6499 2.47791 10.9541 3.06238L1.28711 11.1801C1.08301 11.347 0.990234 11.5697 0.990234 11.7831ZM18.0698 7.599L20.3984 9.56579V5.27966C20.3984 4.87146 20.1386 4.61169 19.7304 4.61169H18.7378C18.3388 4.61169 18.0698 4.87146 18.0698 5.27966V7.599Z" fill="black"/>
</svg>
