<svg width="25" height="24" viewBox="0 0 25 24" fill="none" xmlns="http://www.w3.org/2000/svg">
<path fill-rule="evenodd" clip-rule="evenodd" d="M12.2865 1.21065C12.6476 0.929784 13.1532 0.929784 13.5143 1.21065L22.5143 8.21065C22.7579 8.4001 22.9004 8.69141 22.9004 9V20C22.9004 20.7957 22.5843 21.5587 22.0217 22.1213C21.4591 22.6839 20.696 23 19.9004 23H5.90039C5.10474 23 4.34168 22.6839 3.77907 22.1213C3.21646 21.5587 2.90039 20.7957 2.90039 20V9C2.90039 8.69141 3.04286 8.4001 3.28645 8.21065L12.2865 1.21065ZM4.90039 9.48908V20C4.90039 20.2652 5.00575 20.5196 5.19328 20.7071C5.38082 20.8946 5.63517 21 5.90039 21H19.9004C20.1656 21 20.42 20.8946 20.6075 20.7071C20.795 20.5196 20.9004 20.2652 20.9004 20V9.48908L12.9004 3.26686L4.90039 9.48908Z" fill="#092C4C"/>
<path fill-rule="evenodd" clip-rule="evenodd" d="M8.90039 12C8.90039 11.4477 9.34811 11 9.90039 11H15.9004C16.4527 11 16.9004 11.4477 16.9004 12V22C16.9004 22.5523 16.4527 23 15.9004 23C15.3481 23 14.9004 22.5523 14.9004 22V13H10.9004V22C10.9004 22.5523 10.4527 23 9.90039 23C9.34811 23 8.90039 22.5523 8.90039 22V12Z" fill="#092C4C"/>
</svg>
