<svg width="20" height="20" viewBox="0 0 20 20" fill="none" xmlns="http://www.w3.org/2000/svg">
<g clip-path="url(#clip0_846_16736)">
<path d="M-0.00976562 8.41699C-0.00976562 9.49121 0.192057 10.4987 0.595703 11.4394C0.999351 12.3802 1.55925 13.2087 2.27539 13.9248C2.99154 14.641 3.81999 15.2009 4.76074 15.6045C5.7015 16.0081 6.70898 16.2099 7.7832 16.2099C8.62956 16.2099 9.43683 16.0797 10.205 15.8193C10.9733 15.5589 11.6764 15.2009 12.3144 14.7451L17.1191 19.5595C17.2363 19.6703 17.3649 19.7533 17.5048 19.8086C17.6448 19.864 17.793 19.8916 17.9492 19.8916C18.1706 19.8916 18.3659 19.8412 18.5351 19.7402C18.7044 19.6393 18.8362 19.501 18.9306 19.3252C19.025 19.1494 19.0722 18.9541 19.0722 18.7392C19.0722 18.583 19.0446 18.4366 18.9892 18.2998C18.9339 18.1631 18.8542 18.0427 18.75 17.9385L13.9746 13.1338C14.4759 12.4828 14.8681 11.7568 15.1513 10.956C15.4345 10.1553 15.5761 9.30892 15.5761 8.41699C15.5761 7.34277 15.3743 6.33529 14.9707 5.39453C14.5671 4.45378 14.0072 3.62533 13.291 2.90918C12.5749 2.19304 11.7464 1.63314 10.8056 1.22949C9.8649 0.825846 8.85742 0.624023 7.7832 0.624023C6.70898 0.624023 5.7015 0.825846 4.76074 1.22949C3.81999 1.63314 2.99154 2.19304 2.27539 2.90918C1.55925 3.62533 0.999351 4.45378 0.595703 5.39453C0.192057 6.33529 -0.00976562 7.34277 -0.00976562 8.41699ZM1.66015 8.41699C1.66015 7.57064 1.81803 6.778 2.13378 6.03906C2.44954 5.30013 2.889 4.64909 3.45214 4.08593C4.0153 3.52279 4.66634 3.08333 5.40527 2.76757C6.14421 2.45182 6.93685 2.29394 7.7832 2.29394C8.62956 2.29394 9.4222 2.45182 10.1611 2.76757C10.9001 3.08333 11.5495 3.52279 12.1093 4.08593C12.6693 4.64909 13.1087 5.30013 13.4277 6.03906C13.7467 6.778 13.9062 7.57064 13.9062 8.41699C13.9062 9.26335 13.7467 10.056 13.4277 10.7949C13.1087 11.5339 12.6693 12.1833 12.1093 12.7431C11.5495 13.3031 10.9001 13.7425 10.1611 14.0615C9.4222 14.3805 8.62956 14.54 7.7832 14.54C6.93685 14.54 6.14421 14.3805 5.40527 14.0615C4.66634 13.7425 4.0153 13.3031 3.45214 12.7431C2.889 12.1833 2.44954 11.5339 2.13378 10.7949C1.81803 10.056 1.66015 9.26335 1.66015 8.41699Z" fill="black" fill-opacity="0.85"/>
</g>
<defs>
<clipPath id="clip0_846_16736">
<rect width="19.082" height="19.2676" fill="white" transform="translate(-0.00976562 0.624023)"/>
</clipPath>
</defs>
</svg>
