<svg width="27" height="29" viewBox="0 0 27 29" fill="none" xmlns="http://www.w3.org/2000/svg">
<path d="M15.0908 23.624C15.7764 23.624 16.251 23.0703 16.5762 22.2266L22.377 7.05664C22.5264 6.66113 22.6143 6.31836 22.6143 6.01953C22.6143 5.39551 22.2188 5 21.5859 5C21.2959 5 20.9443 5.0791 20.5576 5.22852L5.31738 11.0645C4.56152 11.3545 3.99023 11.8291 3.99023 12.5146C3.99023 13.3584 4.61426 13.6748 5.47559 13.9297L11.8213 15.793L13.667 22.0684C13.9307 22.9648 14.2471 23.624 15.0908 23.624ZM12.3311 14.1758L6.87305 12.5059C6.74121 12.4707 6.70605 12.4268 6.70605 12.374C6.70605 12.3125 6.74121 12.2598 6.85547 12.2246L17.2881 8.23438C18.0352 7.94434 18.7646 7.59277 19.5645 7.22363C18.9316 7.7334 18.1582 8.35742 17.6309 8.88477L12.3311 14.1758ZM15.249 20.917C15.1875 20.917 15.1436 20.8643 15.1084 20.7412L13.4385 15.2832L18.7295 9.9834C19.2393 9.46484 19.8896 8.66504 20.3994 8.02344C20.0303 8.83203 19.6699 9.57031 19.3799 10.3262L15.3896 20.7588C15.3457 20.873 15.3105 20.917 15.249 20.917Z" fill="#1C1C1E"/>
</svg>
