<svg width="29" height="28" viewBox="0 0 29 28" fill="none" xmlns="http://www.w3.org/2000/svg">
<path d="M14.4746 13.8477C16.6016 13.8477 18.3242 11.9668 18.3242 9.66406C18.3242 7.39648 16.6016 5.59473 14.4746 5.59473C12.3564 5.59473 10.6162 7.42285 10.625 9.68164C10.6338 11.9756 12.3477 13.8477 14.4746 13.8477ZM14.4746 12.3096C13.2617 12.3096 12.2334 11.1582 12.2334 9.68164C12.2246 8.24023 13.2529 7.13281 14.4746 7.13281C15.7051 7.13281 16.7158 8.22266 16.7158 9.66406C16.7158 11.1406 15.6963 12.3096 14.4746 12.3096ZM8.99023 22.0215H19.9502C21.4707 22.0215 22.2002 21.5381 22.2002 20.501C22.2002 18.084 19.1855 14.8672 14.4746 14.8672C9.76367 14.8672 6.74023 18.084 6.74023 20.501C6.74023 21.5381 7.46973 22.0215 8.99023 22.0215ZM8.71777 20.4834C8.50684 20.4834 8.42773 20.4131 8.42773 20.2549C8.42773 18.9102 10.5986 16.4053 14.4746 16.4053C18.3418 16.4053 20.5127 18.9102 20.5127 20.2549C20.5127 20.4131 20.4336 20.4834 20.2227 20.4834H8.71777Z" fill="#1C1C1E"/>
</svg>
