<svg width="29" height="28" viewBox="0 0 29 28" fill="none" xmlns="http://www.w3.org/2000/svg">
<path d="M8.11133 14.6562H13.4727V20.0176C13.4727 20.5625 13.9209 21.0195 14.4746 21.0195C15.0283 21.0195 15.4766 20.5625 15.4766 20.0176V14.6562H20.8379C21.3828 14.6562 21.8398 14.208 21.8398 13.6543C21.8398 13.1006 21.3828 12.6523 20.8379 12.6523H15.4766V7.29102C15.4766 6.74609 15.0283 6.28906 14.4746 6.28906C13.9209 6.28906 13.4727 6.74609 13.4727 7.29102V12.6523H8.11133C7.56641 12.6523 7.10938 13.1006 7.10938 13.6543C7.10938 14.208 7.56641 14.6562 8.11133 14.6562Z" fill="#1C1C1E"/>
</svg>
