<svg width="137" height="138" viewBox="0 0 137 138" fill="none" xmlns="http://www.w3.org/2000/svg">
<path d="M68.5 137.312C105.921 137.312 136.917 106.382 136.917 68.8948C136.917 31.4738 105.921 0.477295 68.4337 0.477295C31.0127 0.477295 0.0824585 31.4738 0.0824585 68.8948C0.0824585 106.382 31.079 137.312 68.5 137.312ZM68.5 123.867C38.0333 123.867 13.5938 99.3615 13.5938 68.8948C13.5938 38.4282 37.9671 13.9886 68.4337 13.9886C98.9004 13.9886 123.406 38.4282 123.472 68.8948C123.472 99.3615 98.9666 123.867 68.5 123.867ZM68.5 70.6831C71.4142 70.6831 73.4674 68.5637 73.4674 65.5832V37.6996C73.4674 34.7192 71.4142 32.5998 68.5 32.5998C65.5858 32.5998 63.5326 34.7192 63.5326 37.6996V65.5832C63.5326 68.5637 65.5858 70.6831 68.5 70.6831ZM68.5 103.137C87.3098 103.137 102.874 87.5722 102.874 68.8286C102.874 59.5561 98.8342 50.4161 92.0785 44.0579C87.1111 39.2892 80.3555 46.1773 85.2566 51.0784C90.1578 55.7147 92.8733 61.9405 92.9395 68.8286C92.9395 82.4061 82.0775 93.2681 68.5 93.2681C54.9224 93.2681 44.1267 82.4061 44.1267 68.8286C44.1267 61.9405 46.8422 55.7147 51.7433 51.0122C56.7107 46.111 49.8888 39.2892 44.9877 44.0579C38.1658 50.3499 34.1919 59.4899 34.1919 68.8286C34.1919 87.5722 49.6901 103.137 68.5 103.137Z" fill="#999999" fill-opacity="0.25"/>
</svg>
