<svg width="21" height="20" viewBox="0 0 21 20" fill="none" xmlns="http://www.w3.org/2000/svg">
<path d="M2.85645 19.6045H12.2168C14.0977 19.6045 15.0732 18.6201 15.0732 16.7217V12.7666H13.3506V16.6162C13.3506 17.4336 12.9199 17.8818 12.0674 17.8818H2.99707C2.14453 17.8818 1.72266 17.4336 1.72266 16.6162V3.56445C1.72266 2.74707 2.14453 2.29883 2.99707 2.29883H12.0674C12.9199 2.29883 13.3506 2.74707 13.3506 3.56445V7.42285H15.0732V3.45898C15.0732 1.56934 14.0977 0.576172 12.2168 0.576172H2.85645C0.975586 0.576172 0 1.56934 0 3.45898V16.7217C0 18.6201 0.975586 19.6045 2.85645 19.6045ZM8.5166 10.8945H17.376L18.6768 10.833L18.0352 11.3779L16.7256 12.6084C16.5674 12.749 16.4795 12.9512 16.4795 13.1533C16.4795 13.5488 16.7783 13.8828 17.1826 13.8828C17.3936 13.8828 17.5518 13.7949 17.7012 13.6455L20.5488 10.7012C20.751 10.4902 20.8213 10.2969 20.8213 10.0859C20.8213 9.875 20.751 9.68164 20.5488 9.4707L17.7012 6.51758C17.5518 6.36816 17.3936 6.28906 17.1826 6.28906C16.7783 6.28906 16.4795 6.60547 16.4795 7.00977C16.4795 7.20312 16.5674 7.41406 16.7256 7.55469L18.0352 8.79395L18.6855 9.33887L17.376 9.26855H8.5166C8.08594 9.26855 7.7168 9.6377 7.7168 10.0859C7.7168 10.5342 8.08594 10.8945 8.5166 10.8945Z" fill="#1C1C1E"/>
</svg>
