<svg width="38" height="37" viewBox="0 0 38 37" fill="none" xmlns="http://www.w3.org/2000/svg">
<path d="M0.5 14.965C0.5 17.0279 0.891335 18.9625 1.674 20.7691C2.45668 22.5757 3.54232 24.1666 4.93093 25.5418C6.31953 26.917 7.9259 27.9922 9.75002 28.7674C11.5741 29.5424 13.5277 29.93 15.6106 29.93C17.2516 29.93 18.817 29.6799 20.3065 29.1799C21.7962 28.6798 23.1595 27.9922 24.3966 27.1171L33.7129 36.3623C33.9402 36.5749 34.1895 36.7344 34.4608 36.8406C34.7323 36.9469 35.0195 37 35.3225 37C35.7517 37 36.1304 36.9031 36.4586 36.7093C36.7868 36.5154 37.0424 36.2498 37.2254 35.9123C37.4085 35.5747 37.5 35.1996 37.5 34.787C37.5 34.4871 37.4464 34.2058 37.3391 33.9432C37.2318 33.6807 37.0772 33.4494 36.8753 33.2494L27.6158 24.0228C28.5877 22.7726 29.3482 21.3786 29.8974 19.8408C30.4465 18.3031 30.7211 16.6778 30.7211 14.965C30.7211 12.9022 30.3298 10.9675 29.5472 9.16092C28.7645 7.35437 27.6788 5.76348 26.2903 4.38824C24.9017 3.01301 23.2953 1.93783 21.4711 1.1627C19.647 0.387565 17.6935 0 15.6106 0C13.5277 0 11.5741 0.387565 9.75002 1.1627C7.9259 1.93783 6.31953 3.01301 4.93093 4.38824C3.54232 5.76348 2.45668 7.35437 1.674 9.16092C0.891335 10.9675 0.5 12.9022 0.5 14.965ZM3.73797 14.965C3.73797 13.3397 4.0441 11.8176 4.65634 10.3986C5.2686 8.97963 6.1207 7.72942 7.21264 6.64798C8.3046 5.56656 9.56697 4.72267 10.9998 4.11631C12.4326 3.50996 13.9695 3.20678 15.6106 3.20678C17.2516 3.20678 18.7886 3.50996 20.2214 4.11631C21.6542 4.72267 22.9134 5.56656 23.9989 6.64798C25.0846 7.72942 25.9368 8.97963 26.5553 10.3986C27.1739 11.8176 27.4831 13.3397 27.4831 14.965C27.4831 16.5903 27.1739 18.1124 26.5553 19.5314C25.9368 20.9504 25.0846 22.1975 23.9989 23.2726C22.9134 24.3478 21.6542 25.1917 20.2214 25.8043C18.7886 26.4169 17.2516 26.7232 15.6106 26.7232C13.9695 26.7232 12.4326 26.4169 10.9998 25.8043C9.56697 25.1917 8.3046 24.3478 7.21264 23.2726C6.1207 22.1975 5.2686 20.9504 4.65634 19.5314C4.0441 18.1124 3.73797 16.5903 3.73797 14.965Z" fill="#999999"/>
</svg>
