<svg width="21" height="17" viewBox="0 0 21 17" fill="none" xmlns="http://www.w3.org/2000/svg">
<path d="M2.88281 16.4004H17.9385C19.8369 16.4004 20.8213 15.4248 20.8213 13.5527V2.84766C20.8213 0.975586 19.8369 0 17.9385 0H2.88281C0.984375 0 0 0.966797 0 2.84766V13.5527C0 15.4248 0.984375 16.4004 2.88281 16.4004ZM2.98828 14.6777C2.1709 14.6777 1.72266 14.2559 1.72266 13.4033V2.99707C1.72266 2.14453 2.1709 1.71387 2.98828 1.71387H17.833C18.6416 1.71387 19.0986 2.14453 19.0986 2.99707V13.4033C19.0986 14.2559 18.6416 14.6777 17.833 14.6777H2.98828ZM4.62305 5.19434H5.625C5.99414 5.19434 6.31055 4.88672 6.31055 4.50879C6.31055 4.13086 5.99414 3.82324 5.625 3.82324H4.62305C4.24512 3.82324 3.9375 4.13086 3.9375 4.50879C3.9375 4.88672 4.24512 5.19434 4.62305 5.19434ZM8.05078 5.08008H16.2949C16.6113 5.08008 16.8662 4.83398 16.8662 4.50879C16.8662 4.19238 16.6113 3.94629 16.2949 3.94629H8.05078C7.72559 3.94629 7.47949 4.19238 7.47949 4.50879C7.47949 4.83398 7.72559 5.08008 8.05078 5.08008ZM4.62305 8.07715H5.625C5.99414 8.07715 6.31055 7.77832 6.31055 7.40039C6.31055 7.02246 6.00293 6.71484 5.625 6.71484H4.62305C4.24512 6.71484 3.9375 7.02246 3.9375 7.40039C3.9375 7.77832 4.24512 8.07715 4.62305 8.07715ZM8.05078 7.97168H16.2949C16.6113 7.97168 16.8662 7.72559 16.8662 7.40039C16.8662 7.0752 16.6113 6.82031 16.2949 6.82031H8.05078C7.73438 6.82031 7.47949 7.0752 7.47949 7.40039C7.47949 7.7168 7.72559 7.97168 8.05078 7.97168Z" fill="#1C1C1E"/>
</svg>
