<svg width="28" height="29" viewBox="0 0 28 29" fill="none" xmlns="http://www.w3.org/2000/svg">
<path d="M22.7178 7.23816L23.377 6.54383C23.7109 6.19226 23.7373 5.70886 23.4033 5.37488L23.1748 5.13758C22.876 4.83875 22.375 4.88269 22.0498 5.20789L21.3643 5.87586L22.7178 7.23816ZM12.3115 16.5897L14.1133 15.8339L22.0762 7.87097L20.7227 6.52625L12.7598 14.4979L11.9688 16.2382C11.8809 16.4403 12.1094 16.6688 12.3115 16.5897ZM8.97168 22.4872H19.2109C20.8984 22.4872 21.8916 21.5028 21.8916 19.622V10.3407L20.1338 12.0897V19.4637C20.1338 20.3075 19.6855 20.7294 19.0967 20.7294H9.08594C8.27734 20.7294 7.83789 20.3075 7.83789 19.4637V9.6991C7.83789 8.85535 8.27734 8.43347 9.08594 8.43347H16.5479L18.2969 6.67566H8.97168C7.07324 6.67566 6.08008 7.66004 6.08008 9.5409V19.622C6.08008 21.5028 7.07324 22.4872 8.97168 22.4872Z" fill="#1C1C1E"/>
</svg>
