<svg width="29" height="29" viewBox="0 0 29 29" fill="none" xmlns="http://www.w3.org/2000/svg">
<path d="M10.0381 23.3926H18.1152C19.4688 23.3926 20.3389 22.5752 20.4092 21.2217L20.998 8.56543H21.9648C22.4131 8.56543 22.7559 8.21387 22.7559 7.77441C22.7559 7.33496 22.4043 7.00098 21.9648 7.00098H18.0625V5.68262C18.0625 4.3291 17.2012 3.53809 15.7334 3.53809H12.3936C10.9258 3.53809 10.0645 4.3291 10.0645 5.68262V7.00098H6.17969C5.74023 7.00098 5.38867 7.34375 5.38867 7.77441C5.38867 8.22266 5.74023 8.56543 6.17969 8.56543H7.14648L7.73535 21.2217C7.80566 22.584 8.66699 23.3926 10.0381 23.3926ZM11.708 5.76172C11.708 5.31348 12.0244 5.02344 12.5078 5.02344H15.6191C16.1025 5.02344 16.4189 5.31348 16.4189 5.76172V7.00098H11.708V5.76172ZM10.2139 21.8193C9.73047 21.8193 9.37891 21.459 9.35254 20.9404L8.76367 8.56543H19.3545L18.7832 20.9404C18.7656 21.4678 18.4229 21.8193 17.9219 21.8193H10.2139ZM11.4795 20.4043C11.8574 20.4043 12.0947 20.167 12.0859 19.8154L11.8223 10.6221C11.8135 10.2705 11.5674 10.042 11.207 10.042C10.8379 10.042 10.6006 10.2793 10.6094 10.6309L10.873 19.8242C10.8818 20.1758 11.1279 20.4043 11.4795 20.4043ZM14.0723 20.4043C14.4414 20.4043 14.6963 20.1758 14.6963 19.8242V10.6309C14.6963 10.2793 14.4414 10.042 14.0723 10.042C13.7031 10.042 13.457 10.2793 13.457 10.6309V19.8242C13.457 20.1758 13.7031 20.4043 14.0723 20.4043ZM16.665 20.4131C17.0166 20.4131 17.2627 20.1758 17.2715 19.8242L17.5352 10.6309C17.5439 10.2793 17.3066 10.0508 16.9375 10.0508C16.5771 10.0508 16.3311 10.2793 16.3223 10.6309L16.0586 19.8242C16.0498 20.167 16.2871 20.4131 16.665 20.4131Z" fill="#1C1C1E"/>
</svg>
