<svg width="28" height="29" viewBox="0 0 28 29" fill="none" xmlns="http://www.w3.org/2000/svg">
<path d="M9.31543 23.6826H18.6846C20.5654 23.6826 21.5498 22.6895 21.5498 20.791V7.52832C21.5498 5.62109 20.5742 4.63672 18.6846 4.63672H16.0566C15.7314 4.63672 15.5293 4.83887 15.5293 5.16406C15.5293 6.02539 14.9316 6.68457 14 6.68457C13.0771 6.68457 12.4707 6.02539 12.4707 5.16406C12.4707 4.83887 12.2686 4.63672 11.9434 4.63672H9.31543C7.43457 4.63672 6.4502 5.62109 6.4502 7.52832V20.791C6.4502 22.6895 7.43457 23.6826 9.31543 23.6826ZM9.47363 21.9248C8.62109 21.9248 8.19922 21.4766 8.19922 20.6768V7.64258C8.19922 6.83398 8.62109 6.38574 9.47363 6.38574H11.1523C11.5303 7.59863 12.5938 8.3457 14 8.3457C15.4062 8.3457 16.4697 7.59863 16.8477 6.38574H18.5264C19.3789 6.38574 19.8008 6.83398 19.8008 7.64258V20.6768C19.8008 21.4766 19.3789 21.9248 18.5264 21.9248H9.47363ZM10.8008 11.3955H17.208C17.5244 11.3955 17.7705 11.1494 17.7705 10.8242C17.7705 10.5166 17.5244 10.2793 17.208 10.2793H10.8008C10.4668 10.2793 10.2295 10.5166 10.2295 10.8242C10.2295 11.1494 10.4668 11.3955 10.8008 11.3955ZM10.8008 14.4365H13.9033C14.2285 14.4365 14.4658 14.1904 14.4658 13.8828C14.4658 13.5664 14.2285 13.3203 13.9033 13.3203H10.8008C10.4668 13.3203 10.2295 13.5664 10.2295 13.8828C10.2295 14.1904 10.4668 14.4365 10.8008 14.4365Z" fill="#1C1C1E"/>
</svg>
