<svg width="29" height="28" viewBox="0 0 29 28" fill="none" xmlns="http://www.w3.org/2000/svg">
<path d="M7.66322 19.0507C7.29408 19.4198 7.2765 20.079 7.67201 20.4657C8.05873 20.8524 8.7179 20.8436 9.08705 20.4745L14.466 15.0868L19.8536 20.4745C20.2316 20.8524 20.882 20.8524 21.2687 20.4657C21.6466 20.0702 21.6554 19.4286 21.2687 19.0507L15.8898 13.663L21.2687 8.28407C21.6554 7.90614 21.6554 7.25575 21.2687 6.86903C20.8732 6.4911 20.2316 6.48231 19.8536 6.86024L14.466 12.2479L9.08705 6.86024C8.7179 6.4911 8.04994 6.47352 7.67201 6.86903C7.28529 7.25575 7.29408 7.91493 7.66322 8.28407L13.0509 13.663L7.66322 19.0507Z" fill="#1C1C1E"/>
</svg>
