<svg width="135" height="98" viewBox="0 0 135 98" fill="none" xmlns="http://www.w3.org/2000/svg">
<path d="M19.1253 98H115.875C128.159 98 134.5 91.6099 134.5 79.5084V18.4351C134.5 6.33353 128.159 0 115.875 0H19.1253C6.89713 0 0.5 6.33353 0.5 18.4351V79.5084C0.5 91.6665 6.89713 98 19.1253 98ZM11.7657 19.453C11.7657 14.0242 14.6529 11.3099 19.8612 11.3099H115.139C120.347 11.3099 123.234 14.0242 123.234 19.453V23.5245H11.7657V19.453ZM19.8612 86.6901C14.6529 86.6901 11.7657 83.9758 11.7657 78.547V36.8136H123.234V78.547C123.234 83.9758 120.347 86.6901 115.139 86.6901H19.8612ZM27.5604 76.4547H41.4303C44.7704 76.4547 47.0349 74.2493 47.0349 71.0825V60.5643C47.0349 57.3976 44.7704 55.1922 41.4303 55.1922H27.5604C24.2769 55.1922 22.0125 57.3976 22.0125 60.5643V71.0825C22.0125 74.2493 24.2769 76.4547 27.5604 76.4547Z" fill="#999999" fill-opacity="0.5"/>
</svg>
