<svg width="227" height="204" viewBox="0 0 227 204" fill="none" xmlns="http://www.w3.org/2000/svg">
<path d="M152.343 116.084C153.441 125.573 158.531 130.029 168.073 128.814L179.235 127.541C188.777 126.326 192.883 121.176 191.842 111.686L182.531 27.3792C181.49 17.8896 176.285 13.3762 166.801 14.6492L155.639 15.9222C153.152 16.2115 151.07 16.7901 149.335 17.6581V14.4178C149.335 4.87029 144.593 0.00976562 135.051 0.00976562H119.551C109.951 0.00976562 105.209 4.87029 105.209 14.4178V37.1002C104.226 36.9845 103.185 36.9266 102.028 36.9266H75.3094C74.1528 36.9266 73.0539 36.9845 72.0708 37.1002V30.7931C72.0708 21.1878 67.3285 16.3272 57.7861 16.3272H49.3425C39.7423 16.3272 35 21.1878 35 30.7931V114.232C35 123.78 39.7423 128.64 49.3425 128.64H135.051C144.593 128.64 149.335 123.78 149.335 114.232V89.1194L152.343 116.084ZM121.229 11.0617H133.373C136.67 11.0617 138.289 12.7976 138.289 15.9222V112.67C138.289 115.852 136.67 117.588 133.373 117.588H116.313V15.9222C116.313 12.7976 117.932 11.0617 121.229 11.0617ZM163.157 113.364L154.135 32.0661C153.788 28.9415 155.234 27.2056 158.473 26.7427L166.28 25.8168C169.519 25.3539 171.37 26.9741 171.717 30.0409L180.738 111.339C181.085 114.521 179.64 116.257 176.401 116.72L168.536 117.646C165.297 118.109 163.504 116.547 163.157 113.364ZM50.9618 117.588C47.7232 117.588 46.0461 115.852 46.0461 112.67V32.2397C46.0461 29.1151 47.7232 27.437 50.9618 27.437H56.0511C59.4054 27.437 60.9669 29.1151 60.9669 32.2397V117.588H50.9618ZM76.9866 47.9785H100.293C103.647 47.9785 105.209 49.6566 105.209 52.7812V117.588H72.0708V52.7812C72.0708 49.6566 73.6901 47.9785 76.9866 47.9785ZM80.5722 62.5601H96.9389C99.0208 62.5601 100.64 60.8821 100.64 58.799C100.64 56.7159 99.0208 55.0957 96.9389 55.0957H80.5722C78.3746 55.0957 76.8131 56.7159 76.8131 58.799C76.8131 60.8821 78.4324 62.5601 80.5722 62.5601ZM80.5722 110.529H96.9389C99.0208 110.529 100.64 108.851 100.64 106.71C100.64 104.685 99.0208 103.007 96.9389 103.007H80.5722C78.4324 103.007 76.8131 104.685 76.8131 106.71C76.8131 108.851 78.3746 110.529 80.5722 110.529Z" fill="#999999"/>
<path d="M172.16 192.57C173.48 192.57 174.546 192.99 175.36 193.83C176.173 194.657 176.58 195.817 176.58 197.31V203.81H173.78V197.69C173.78 196.81 173.56 196.137 173.12 195.67C172.68 195.19 172.08 194.95 171.32 194.95C170.546 194.95 169.933 195.19 169.48 195.67C169.04 196.137 168.82 196.81 168.82 197.69V203.81H166.02V192.73H168.82V194.11C169.193 193.63 169.666 193.257 170.24 192.99C170.826 192.71 171.466 192.57 172.16 192.57Z" fill="#B4B4B4"/>
<path d="M151.745 198.229C151.745 197.109 151.965 196.115 152.405 195.249C152.858 194.382 153.465 193.715 154.225 193.249C154.998 192.782 155.858 192.549 156.805 192.549C157.632 192.549 158.352 192.715 158.965 193.049C159.592 193.382 160.092 193.802 160.465 194.309V192.729H163.285V203.809H160.465V202.189C160.105 202.709 159.605 203.142 158.965 203.489C158.338 203.822 157.612 203.989 156.785 203.989C155.852 203.989 154.998 203.749 154.225 203.269C153.465 202.789 152.858 202.115 152.405 201.249C151.965 200.369 151.745 199.362 151.745 198.229ZM160.465 198.269C160.465 197.589 160.332 197.009 160.065 196.529C159.798 196.035 159.438 195.662 158.985 195.409C158.532 195.142 158.045 195.009 157.525 195.009C157.005 195.009 156.525 195.135 156.085 195.389C155.645 195.642 155.285 196.015 155.005 196.509C154.738 196.989 154.605 197.562 154.605 198.229C154.605 198.895 154.738 199.482 155.005 199.989C155.285 200.482 155.645 200.862 156.085 201.129C156.538 201.395 157.018 201.529 157.525 201.529C158.045 201.529 158.532 201.402 158.985 201.149C159.438 200.882 159.798 200.509 160.065 200.029C160.332 199.535 160.465 198.949 160.465 198.269Z" fill="#B4B4B4"/>
<path d="M147.345 203.81L143.585 199.09V203.81H140.785V189.01H143.585V197.43L147.305 192.73H150.945L146.065 198.29L150.985 203.81H147.345Z" fill="#B4B4B4"/>
<path d="M136.639 191.409C136.146 191.409 135.732 191.256 135.399 190.949C135.079 190.629 134.919 190.236 134.919 189.769C134.919 189.302 135.079 188.916 135.399 188.609C135.732 188.289 136.146 188.129 136.639 188.129C137.132 188.129 137.539 188.289 137.859 188.609C138.192 188.916 138.359 189.302 138.359 189.769C138.359 190.236 138.192 190.629 137.859 190.949C137.539 191.256 137.132 191.409 136.639 191.409ZM138.019 192.729V203.809H135.219V192.729H138.019Z" fill="#B4B4B4"/>
<path d="M120.944 198.229C120.944 197.109 121.164 196.115 121.604 195.249C122.058 194.382 122.664 193.715 123.424 193.249C124.198 192.782 125.058 192.549 126.004 192.549C126.831 192.549 127.551 192.715 128.164 193.049C128.791 193.382 129.291 193.802 129.664 194.309V192.729H132.484V203.809H129.664V202.189C129.304 202.709 128.804 203.142 128.164 203.489C127.538 203.822 126.811 203.989 125.984 203.989C125.051 203.989 124.198 203.749 123.424 203.269C122.664 202.789 122.058 202.115 121.604 201.249C121.164 200.369 120.944 199.362 120.944 198.229ZM129.664 198.269C129.664 197.589 129.531 197.009 129.264 196.529C128.998 196.035 128.638 195.662 128.184 195.409C127.731 195.142 127.244 195.009 126.724 195.009C126.204 195.009 125.724 195.135 125.284 195.389C124.844 195.642 124.484 196.015 124.204 196.509C123.938 196.989 123.804 197.562 123.804 198.229C123.804 198.895 123.938 199.482 124.204 199.989C124.484 200.482 124.844 200.862 125.284 201.129C125.738 201.395 126.218 201.529 126.724 201.529C127.244 201.529 127.731 201.402 128.184 201.149C128.638 200.882 128.998 200.509 129.264 200.029C129.531 199.535 129.664 198.949 129.664 198.269Z" fill="#B4B4B4"/>
<path d="M115.006 203.989C114.099 203.989 113.286 203.829 112.566 203.509C111.846 203.175 111.272 202.729 110.846 202.169C110.432 201.609 110.206 200.989 110.166 200.309H112.986C113.039 200.735 113.246 201.089 113.606 201.369C113.979 201.649 114.439 201.789 114.986 201.789C115.519 201.789 115.932 201.682 116.226 201.469C116.532 201.255 116.686 200.982 116.686 200.649C116.686 200.289 116.499 200.022 116.126 199.849C115.766 199.662 115.186 199.462 114.386 199.249C113.559 199.049 112.879 198.842 112.346 198.629C111.826 198.415 111.372 198.089 110.986 197.649C110.612 197.209 110.426 196.615 110.426 195.869C110.426 195.255 110.599 194.695 110.946 194.189C111.306 193.682 111.812 193.282 112.466 192.989C113.132 192.695 113.912 192.549 114.806 192.549C116.126 192.549 117.179 192.882 117.966 193.549C118.752 194.202 119.186 195.089 119.266 196.209H116.586C116.546 195.769 116.359 195.422 116.026 195.169C115.706 194.902 115.272 194.769 114.726 194.769C114.219 194.769 113.826 194.862 113.546 195.049C113.279 195.235 113.146 195.495 113.146 195.829C113.146 196.202 113.332 196.489 113.706 196.689C114.079 196.875 114.659 197.069 115.446 197.269C116.246 197.469 116.906 197.675 117.426 197.889C117.946 198.102 118.392 198.435 118.766 198.889C119.152 199.329 119.352 199.915 119.366 200.649C119.366 201.289 119.186 201.862 118.826 202.369C118.479 202.875 117.972 203.275 117.306 203.569C116.652 203.849 115.886 203.989 115.006 203.989Z" fill="#B4B4B4"/>
<path d="M108.722 198.029C108.722 198.429 108.695 198.789 108.642 199.109H100.542C100.609 199.909 100.889 200.535 101.382 200.989C101.875 201.442 102.482 201.669 103.202 201.669C104.242 201.669 104.982 201.222 105.422 200.329H108.442C108.122 201.395 107.509 202.275 106.602 202.969C105.695 203.649 104.582 203.989 103.262 203.989C102.195 203.989 101.235 203.755 100.382 203.289C99.542 202.809 98.882 202.135 98.402 201.269C97.9354 200.402 97.702 199.402 97.702 198.269C97.702 197.122 97.9354 196.115 98.402 195.249C98.8687 194.382 99.522 193.715 100.362 193.249C101.202 192.782 102.169 192.549 103.262 192.549C104.315 192.549 105.255 192.775 106.082 193.229C106.922 193.682 107.569 194.329 108.022 195.169C108.489 195.995 108.722 196.949 108.722 198.029ZM105.822 197.229C105.809 196.509 105.549 195.935 105.042 195.509C104.535 195.069 103.915 194.849 103.182 194.849C102.489 194.849 101.902 195.062 101.422 195.489C100.955 195.902 100.669 196.482 100.562 197.229H105.822Z" fill="#B4B4B4"/>
<path d="M95.6556 189.01V203.81H92.8556V189.01H95.6556Z" fill="#B4B4B4"/>
<path d="M90.8119 198.029C90.8119 198.429 90.7852 198.789 90.7319 199.109H82.6319C82.6985 199.909 82.9785 200.535 83.4719 200.989C83.9652 201.442 84.5719 201.669 85.2919 201.669C86.3319 201.669 87.0719 201.222 87.5119 200.329H90.5319C90.2119 201.395 89.5985 202.275 88.6919 202.969C87.7852 203.649 86.6719 203.989 85.3519 203.989C84.2852 203.989 83.3252 203.755 82.4719 203.289C81.6319 202.809 80.9719 202.135 80.4919 201.269C80.0252 200.402 79.7919 199.402 79.7919 198.269C79.7919 197.122 80.0252 196.115 80.4919 195.249C80.9585 194.382 81.6119 193.715 82.4519 193.249C83.2919 192.782 84.2585 192.549 85.3519 192.549C86.4052 192.549 87.3452 192.775 88.1719 193.229C89.0119 193.682 89.6585 194.329 90.1119 195.169C90.5785 195.995 90.8119 196.949 90.8119 198.029ZM87.9119 197.229C87.8985 196.509 87.6385 195.935 87.1319 195.509C86.6252 195.069 86.0052 194.849 85.2719 194.849C84.5785 194.849 83.9919 195.062 83.5119 195.489C83.0452 195.902 82.7585 196.482 82.6519 197.229H87.9119Z" fill="#B4B4B4"/>
<path d="M73.8534 203.989C72.9468 203.989 72.1334 203.829 71.4134 203.509C70.6934 203.175 70.1201 202.729 69.6934 202.169C69.2801 201.609 69.0534 200.989 69.0134 200.309H71.8334C71.8868 200.735 72.0934 201.089 72.4534 201.369C72.8268 201.649 73.2868 201.789 73.8334 201.789C74.3668 201.789 74.7801 201.682 75.0734 201.469C75.3801 201.255 75.5334 200.982 75.5334 200.649C75.5334 200.289 75.3468 200.022 74.9734 199.849C74.6134 199.662 74.0334 199.462 73.2334 199.249C72.4068 199.049 71.7268 198.842 71.1934 198.629C70.6734 198.415 70.2201 198.089 69.8334 197.649C69.4601 197.209 69.2734 196.615 69.2734 195.869C69.2734 195.255 69.4468 194.695 69.7934 194.189C70.1534 193.682 70.6601 193.282 71.3134 192.989C71.9801 192.695 72.7601 192.549 73.6534 192.549C74.9734 192.549 76.0268 192.882 76.8134 193.549C77.6001 194.202 78.0334 195.089 78.1134 196.209H75.4334C75.3934 195.769 75.2068 195.422 74.8734 195.169C74.5534 194.902 74.1201 194.769 73.5734 194.769C73.0668 194.769 72.6734 194.862 72.3934 195.049C72.1268 195.235 71.9934 195.495 71.9934 195.829C71.9934 196.202 72.1801 196.489 72.5534 196.689C72.9268 196.875 73.5068 197.069 74.2934 197.269C75.0934 197.469 75.7534 197.675 76.2734 197.889C76.7934 198.102 77.2401 198.435 77.6134 198.889C78.0001 199.329 78.2001 199.915 78.2134 200.649C78.2134 201.289 78.0334 201.862 77.6734 202.369C77.3268 202.875 76.8201 203.275 76.1534 203.569C75.5001 203.849 74.7334 203.989 73.8534 203.989Z" fill="#B4B4B4"/>
<path d="M65.467 191.409C64.9737 191.409 64.5603 191.256 64.227 190.949C63.907 190.629 63.747 190.236 63.747 189.769C63.747 189.302 63.907 188.916 64.227 188.609C64.5603 188.289 64.9737 188.129 65.467 188.129C65.9603 188.129 66.367 188.289 66.687 188.609C67.0203 188.916 67.187 189.302 67.187 189.769C67.187 190.236 67.0203 190.629 66.687 190.949C66.367 191.256 65.9603 191.409 65.467 191.409ZM66.847 192.729V203.809H64.047V192.729H66.847Z" fill="#B4B4B4"/>
<path d="M49.7723 198.23C49.7723 197.11 49.9923 196.116 50.4323 195.25C50.8857 194.383 51.499 193.716 52.2723 193.25C53.0457 192.783 53.9057 192.55 54.8523 192.55C55.5723 192.55 56.259 192.71 56.9123 193.03C57.5657 193.336 58.0857 193.75 58.4723 194.27V189.01H61.3123V203.81H58.4723V202.17C58.1257 202.716 57.639 203.156 57.0123 203.49C56.3857 203.823 55.659 203.99 54.8323 203.99C53.899 203.99 53.0457 203.75 52.2723 203.27C51.499 202.79 50.8857 202.116 50.4323 201.25C49.9923 200.37 49.7723 199.363 49.7723 198.23ZM58.4923 198.27C58.4923 197.59 58.359 197.01 58.0923 196.53C57.8257 196.036 57.4657 195.663 57.0123 195.41C56.559 195.143 56.0723 195.01 55.5523 195.01C55.0323 195.01 54.5523 195.136 54.1123 195.39C53.6723 195.643 53.3123 196.016 53.0323 196.51C52.7657 196.99 52.6323 197.563 52.6323 198.23C52.6323 198.896 52.7657 199.483 53.0323 199.99C53.3123 200.483 53.6723 200.863 54.1123 201.13C54.5657 201.396 55.0457 201.53 55.5523 201.53C56.0723 201.53 56.559 201.403 57.0123 201.15C57.4657 200.883 57.8257 200.51 58.0923 200.03C58.359 199.536 58.4923 198.95 58.4923 198.27Z" fill="#B4B4B4"/>
<path d="M219.637 157.549C220.464 157.549 221.19 157.715 221.817 158.049C222.444 158.369 222.937 158.789 223.297 159.309V157.729H226.117V168.889C226.117 169.915 225.91 170.829 225.497 171.629C225.084 172.442 224.464 173.082 223.637 173.549C222.81 174.029 221.81 174.269 220.637 174.269C219.064 174.269 217.77 173.902 216.757 173.169C215.757 172.435 215.19 171.435 215.057 170.169H217.837C217.984 170.675 218.297 171.075 218.777 171.369C219.27 171.675 219.864 171.829 220.557 171.829C221.37 171.829 222.03 171.582 222.537 171.089C223.044 170.609 223.297 169.875 223.297 168.889V167.169C222.937 167.689 222.437 168.122 221.797 168.469C221.17 168.815 220.45 168.989 219.637 168.989C218.704 168.989 217.85 168.749 217.077 168.269C216.304 167.789 215.69 167.115 215.237 166.249C214.797 165.369 214.577 164.362 214.577 163.229C214.577 162.109 214.797 161.115 215.237 160.249C215.69 159.382 216.297 158.715 217.057 158.249C217.83 157.782 218.69 157.549 219.637 157.549ZM223.297 163.269C223.297 162.589 223.164 162.009 222.897 161.529C222.63 161.035 222.27 160.662 221.817 160.409C221.364 160.142 220.877 160.009 220.357 160.009C219.837 160.009 219.357 160.135 218.917 160.389C218.477 160.642 218.117 161.015 217.837 161.509C217.57 161.989 217.437 162.562 217.437 163.229C217.437 163.895 217.57 164.482 217.837 164.989C218.117 165.482 218.477 165.862 218.917 166.129C219.37 166.395 219.85 166.529 220.357 166.529C220.877 166.529 221.364 166.402 221.817 166.149C222.27 165.882 222.63 165.509 222.897 165.029C223.164 164.535 223.297 163.949 223.297 163.269Z" fill="#B4B4B4"/>
<path d="M208.214 157.57C209.534 157.57 210.601 157.99 211.414 158.83C212.228 159.657 212.634 160.817 212.634 162.31V168.81H209.834V162.69C209.834 161.81 209.614 161.137 209.174 160.67C208.734 160.19 208.134 159.95 207.374 159.95C206.601 159.95 205.988 160.19 205.534 160.67C205.094 161.137 204.874 161.81 204.874 162.69V168.81H202.074V157.73H204.874V159.11C205.248 158.63 205.721 158.257 206.294 157.99C206.881 157.71 207.521 157.57 208.214 157.57Z" fill="#B4B4B4"/>
<path d="M187.8 163.229C187.8 162.109 188.02 161.115 188.46 160.249C188.913 159.382 189.52 158.715 190.28 158.249C191.053 157.782 191.913 157.549 192.86 157.549C193.686 157.549 194.406 157.715 195.02 158.049C195.646 158.382 196.146 158.802 196.52 159.309V157.729H199.34V168.809H196.52V167.189C196.16 167.709 195.66 168.142 195.02 168.489C194.393 168.822 193.666 168.989 192.84 168.989C191.906 168.989 191.053 168.749 190.28 168.269C189.52 167.789 188.913 167.115 188.46 166.249C188.02 165.369 187.8 164.362 187.8 163.229ZM196.52 163.269C196.52 162.589 196.386 162.009 196.12 161.529C195.853 161.035 195.493 160.662 195.04 160.409C194.586 160.142 194.1 160.009 193.58 160.009C193.06 160.009 192.58 160.135 192.14 160.389C191.7 160.642 191.34 161.015 191.06 161.509C190.793 161.989 190.66 162.562 190.66 163.229C190.66 163.895 190.793 164.482 191.06 164.989C191.34 165.482 191.7 165.862 192.14 166.129C192.593 166.395 193.073 166.529 193.58 166.529C194.1 166.529 194.586 166.402 195.04 166.149C195.493 165.882 195.853 165.509 196.12 165.029C196.386 164.535 196.52 163.949 196.52 163.269Z" fill="#B4B4B4"/>
<path d="M187.01 157.73L180.15 174.05H177.17L179.57 168.53L175.13 157.73H178.27L181.13 165.47L184.03 157.73H187.01Z" fill="#B4B4B4"/>
<path d="M164.986 168.989C164.08 168.989 163.266 168.829 162.546 168.509C161.826 168.175 161.253 167.729 160.826 167.169C160.413 166.609 160.186 165.989 160.146 165.309H162.966C163.02 165.735 163.226 166.089 163.586 166.369C163.96 166.649 164.42 166.789 164.966 166.789C165.5 166.789 165.913 166.682 166.206 166.469C166.513 166.255 166.666 165.982 166.666 165.649C166.666 165.289 166.48 165.022 166.106 164.849C165.746 164.662 165.166 164.462 164.366 164.249C163.54 164.049 162.86 163.842 162.326 163.629C161.806 163.415 161.353 163.089 160.966 162.649C160.593 162.209 160.406 161.615 160.406 160.869C160.406 160.255 160.58 159.695 160.926 159.189C161.286 158.682 161.793 158.282 162.446 157.989C163.113 157.695 163.893 157.549 164.786 157.549C166.106 157.549 167.16 157.882 167.946 158.549C168.733 159.202 169.166 160.089 169.246 161.209H166.566C166.526 160.769 166.34 160.422 166.006 160.169C165.686 159.902 165.253 159.769 164.706 159.769C164.2 159.769 163.806 159.862 163.526 160.049C163.26 160.235 163.126 160.495 163.126 160.829C163.126 161.202 163.313 161.489 163.686 161.689C164.06 161.875 164.64 162.069 165.426 162.269C166.226 162.469 166.886 162.675 167.406 162.889C167.926 163.102 168.373 163.435 168.746 163.889C169.133 164.329 169.333 164.915 169.346 165.649C169.346 166.289 169.166 166.862 168.806 167.369C168.46 167.875 167.953 168.275 167.286 168.569C166.633 168.849 165.866 168.989 164.986 168.989Z" fill="#B4B4B4"/>
<path d="M146.472 163.229C146.472 162.109 146.692 161.115 147.132 160.249C147.585 159.382 148.192 158.715 148.952 158.249C149.725 157.782 150.585 157.549 151.532 157.549C152.358 157.549 153.078 157.715 153.692 158.049C154.318 158.382 154.818 158.802 155.192 159.309V157.729H158.012V168.809H155.192V167.189C154.832 167.709 154.332 168.142 153.692 168.489C153.065 168.822 152.338 168.989 151.512 168.989C150.578 168.989 149.725 168.749 148.952 168.269C148.192 167.789 147.585 167.115 147.132 166.249C146.692 165.369 146.472 164.362 146.472 163.229ZM155.192 163.269C155.192 162.589 155.058 162.009 154.792 161.529C154.525 161.035 154.165 160.662 153.712 160.409C153.258 160.142 152.772 160.009 152.252 160.009C151.732 160.009 151.252 160.135 150.812 160.389C150.372 160.642 150.012 161.015 149.732 161.509C149.465 161.989 149.332 162.562 149.332 163.229C149.332 163.895 149.465 164.482 149.732 164.989C150.012 165.482 150.372 165.862 150.812 166.129C151.265 166.395 151.745 166.529 152.252 166.529C152.772 166.529 153.258 166.402 153.712 166.149C154.165 165.882 154.525 165.509 154.792 165.029C155.058 164.535 155.192 163.949 155.192 163.269Z" fill="#B4B4B4"/>
<path d="M144.425 154.01V168.81H141.625V154.01H144.425Z" fill="#B4B4B4"/>
<path d="M139.581 163.029C139.581 163.429 139.555 163.789 139.501 164.109H131.401C131.468 164.909 131.748 165.535 132.241 165.989C132.735 166.442 133.341 166.669 134.061 166.669C135.101 166.669 135.841 166.222 136.281 165.329H139.301C138.981 166.395 138.368 167.275 137.461 167.969C136.555 168.649 135.441 168.989 134.121 168.989C133.055 168.989 132.095 168.755 131.241 168.289C130.401 167.809 129.741 167.135 129.261 166.269C128.795 165.402 128.561 164.402 128.561 163.269C128.561 162.122 128.795 161.115 129.261 160.249C129.728 159.382 130.381 158.715 131.221 158.249C132.061 157.782 133.028 157.549 134.121 157.549C135.175 157.549 136.115 157.775 136.941 158.229C137.781 158.682 138.428 159.329 138.881 160.169C139.348 160.995 139.581 161.949 139.581 163.029ZM136.681 162.229C136.668 161.509 136.408 160.935 135.901 160.509C135.395 160.069 134.775 159.849 134.041 159.849C133.348 159.849 132.761 160.062 132.281 160.489C131.815 160.902 131.528 161.482 131.421 162.229H136.681Z" fill="#B4B4B4"/>
<path d="M123.9 168.81L118.82 162.59V168.81H116.02V154.85H118.82V161.11L123.9 154.85H127.28L121.52 161.77L127.44 168.81H123.9Z" fill="#B4B4B4"/>
<path d="M96.9794 163.229C96.9794 162.109 97.1994 161.115 97.6394 160.249C98.0927 159.382 98.6994 158.715 99.4594 158.249C100.233 157.782 101.093 157.549 102.039 157.549C102.866 157.549 103.586 157.715 104.199 158.049C104.826 158.382 105.326 158.802 105.699 159.309V157.729H108.519V168.809H105.699V167.189C105.339 167.709 104.839 168.142 104.199 168.489C103.573 168.822 102.846 168.989 102.019 168.989C101.086 168.989 100.233 168.749 99.4594 168.269C98.6994 167.789 98.0927 167.115 97.6394 166.249C97.1994 165.369 96.9794 164.362 96.9794 163.229ZM105.699 163.269C105.699 162.589 105.566 162.009 105.299 161.529C105.033 161.035 104.673 160.662 104.219 160.409C103.766 160.142 103.279 160.009 102.759 160.009C102.239 160.009 101.759 160.135 101.319 160.389C100.879 160.642 100.519 161.015 100.239 161.509C99.9727 161.989 99.8394 162.562 99.8394 163.229C99.8394 163.895 99.9727 164.482 100.239 164.989C100.519 165.482 100.879 165.862 101.319 166.129C101.773 166.395 102.253 166.529 102.759 166.529C103.279 166.529 103.766 166.402 104.219 166.149C104.673 165.882 105.033 165.509 105.299 165.029C105.566 164.535 105.699 163.949 105.699 163.269Z" fill="#B4B4B4"/>
<path d="M83.4247 163.23C83.4247 162.11 83.6447 161.116 84.0847 160.25C84.538 159.383 85.1513 158.716 85.9247 158.25C86.698 157.783 87.558 157.55 88.5047 157.55C89.2247 157.55 89.9113 157.71 90.5647 158.03C91.218 158.336 91.738 158.75 92.1247 159.27V154.01H94.9647V168.81H92.1247V167.17C91.778 167.716 91.2913 168.156 90.6647 168.49C90.038 168.823 89.3113 168.99 88.4847 168.99C87.5513 168.99 86.698 168.75 85.9247 168.27C85.1513 167.79 84.538 167.116 84.0847 166.25C83.6447 165.37 83.4247 164.363 83.4247 163.23ZM92.1447 163.27C92.1447 162.59 92.0113 162.01 91.7447 161.53C91.478 161.036 91.118 160.663 90.6647 160.41C90.2113 160.143 89.7247 160.01 89.2047 160.01C88.6847 160.01 88.2047 160.136 87.7647 160.39C87.3247 160.643 86.9647 161.016 86.6847 161.51C86.418 161.99 86.2847 162.563 86.2847 163.23C86.2847 163.896 86.418 164.483 86.6847 164.99C86.9647 165.483 87.3247 165.863 87.7647 166.13C88.218 166.396 88.698 166.53 89.2047 166.53C89.7247 166.53 90.2113 166.403 90.6647 166.15C91.118 165.883 91.478 165.51 91.7447 165.03C92.0113 164.536 92.1447 163.95 92.1447 163.27Z" fill="#B4B4B4"/>
<path d="M69.87 163.229C69.87 162.109 70.09 161.115 70.53 160.249C70.9833 159.382 71.59 158.715 72.35 158.249C73.1233 157.782 73.9833 157.549 74.93 157.549C75.7567 157.549 76.4767 157.715 77.09 158.049C77.7167 158.382 78.2167 158.802 78.59 159.309V157.729H81.41V168.809H78.59V167.189C78.23 167.709 77.73 168.142 77.09 168.489C76.4633 168.822 75.7367 168.989 74.91 168.989C73.9767 168.989 73.1233 168.749 72.35 168.269C71.59 167.789 70.9833 167.115 70.53 166.249C70.09 165.369 69.87 164.362 69.87 163.229ZM78.59 163.269C78.59 162.589 78.4567 162.009 78.19 161.529C77.9233 161.035 77.5633 160.662 77.11 160.409C76.6567 160.142 76.17 160.009 75.65 160.009C75.13 160.009 74.65 160.135 74.21 160.389C73.77 160.642 73.41 161.015 73.13 161.509C72.8633 161.989 72.73 162.562 72.73 163.229C72.73 163.895 72.8633 164.482 73.13 164.989C73.41 165.482 73.77 165.862 74.21 166.129C74.6633 166.395 75.1433 166.529 75.65 166.529C76.17 166.529 76.6567 166.402 77.11 166.149C77.5633 165.882 77.9233 165.509 78.19 165.029C78.4567 164.535 78.59 163.949 78.59 163.269Z" fill="#B4B4B4"/>
<path d="M58.6273 157.57C59.9873 157.57 61.0806 157.99 61.9073 158.83C62.7473 159.657 63.1673 160.817 63.1673 162.31V168.81H60.3673V162.69C60.3673 161.824 60.1473 161.164 59.7073 160.71C59.2673 160.244 58.6673 160.01 57.9073 160.01C57.1473 160.01 56.5406 160.244 56.0873 160.71C55.6473 161.164 55.4273 161.824 55.4273 162.69V168.81H52.6273V162.69C52.6273 161.824 52.4073 161.164 51.9673 160.71C51.5273 160.244 50.9273 160.01 50.1673 160.01C49.394 160.01 48.7806 160.244 48.3273 160.71C47.8873 161.164 47.6673 161.824 47.6673 162.69V168.81H44.8673V157.73H47.6673V159.07C48.0273 158.604 48.4873 158.237 49.0473 157.97C49.6206 157.704 50.2473 157.57 50.9273 157.57C51.794 157.57 52.5673 157.757 53.2473 158.13C53.9273 158.49 54.454 159.01 54.8273 159.69C55.1873 159.05 55.7073 158.537 56.3873 158.15C57.0806 157.764 57.8273 157.57 58.6273 157.57Z" fill="#B4B4B4"/>
<path d="M42.1047 157.73V168.81H39.2847V167.41C38.9247 167.89 38.4513 168.27 37.8647 168.55C37.2913 168.817 36.6647 168.95 35.9847 168.95C35.118 168.95 34.3513 168.77 33.6847 168.41C33.018 168.037 32.4913 167.497 32.1047 166.79C31.7313 166.07 31.5447 165.217 31.5447 164.23V157.73H34.3447V163.83C34.3447 164.71 34.5647 165.39 35.0047 165.87C35.4447 166.337 36.0447 166.57 36.8047 166.57C37.578 166.57 38.1847 166.337 38.6247 165.87C39.0647 165.39 39.2847 164.71 39.2847 163.83V157.73H42.1047Z" fill="#B4B4B4"/>
<path d="M28.8783 154.01V168.81H26.0783V154.01H28.8783Z" fill="#B4B4B4"/>
<path d="M24.0345 163.029C24.0345 163.429 24.0079 163.789 23.9545 164.109H15.8545C15.9212 164.909 16.2012 165.535 16.6945 165.989C17.1879 166.442 17.7945 166.669 18.5145 166.669C19.5545 166.669 20.2945 166.222 20.7345 165.329H23.7545C23.4345 166.395 22.8212 167.275 21.9145 167.969C21.0079 168.649 19.8945 168.989 18.5745 168.989C17.5079 168.989 16.5479 168.755 15.6945 168.289C14.8545 167.809 14.1945 167.135 13.7145 166.269C13.2479 165.402 13.0145 164.402 13.0145 163.269C13.0145 162.122 13.2479 161.115 13.7145 160.249C14.1812 159.382 14.8345 158.715 15.6745 158.249C16.5145 157.782 17.4812 157.549 18.5745 157.549C19.6279 157.549 20.5679 157.775 21.3945 158.229C22.2345 158.682 22.8812 159.329 23.3345 160.169C23.8012 160.995 24.0345 161.949 24.0345 163.029ZM21.1345 162.229C21.1212 161.509 20.8612 160.935 20.3545 160.509C19.8479 160.069 19.2279 159.849 18.4945 159.849C17.8012 159.849 17.2145 160.062 16.7345 160.489C16.2679 160.902 15.9812 161.482 15.8745 162.229H21.1345Z" fill="#B4B4B4"/>
<path d="M8.80297 161.65C9.58963 161.796 10.2363 162.19 10.743 162.83C11.2496 163.47 11.503 164.203 11.503 165.03C11.503 165.776 11.3163 166.436 10.943 167.01C10.583 167.57 10.0563 168.01 9.36296 168.33C8.66963 168.65 7.84963 168.81 6.90296 168.81H0.882965V154.85H6.64297C7.58963 154.85 8.40296 155.003 9.08296 155.31C9.7763 155.616 10.2963 156.043 10.643 156.59C11.003 157.136 11.183 157.756 11.183 158.45C11.183 159.263 10.963 159.943 10.523 160.49C10.0963 161.036 9.52297 161.423 8.80297 161.65ZM3.68296 160.61H6.24296C6.90963 160.61 7.42296 160.463 7.78296 160.17C8.14296 159.863 8.32296 159.43 8.32296 158.87C8.32296 158.31 8.14296 157.876 7.78296 157.57C7.42296 157.263 6.90963 157.11 6.24296 157.11H3.68296V160.61ZM6.50296 166.53C7.18296 166.53 7.70963 166.37 8.08296 166.05C8.46963 165.73 8.66296 165.276 8.66296 164.69C8.66296 164.09 8.46297 163.623 8.06297 163.29C7.66297 162.943 7.12296 162.77 6.44296 162.77H3.68296V166.53H6.50296Z" fill="#B4B4B4"/>
</svg>
