<svg width="157" height="129" viewBox="0 0 157 129" fill="none" xmlns="http://www.w3.org/2000/svg">
<path d="M117.343 116.084C118.441 125.573 123.531 130.029 133.073 128.814L144.235 127.541C153.777 126.326 157.883 121.176 156.842 111.686L147.531 27.3792C146.49 17.8896 141.285 13.3762 131.801 14.6492L120.639 15.9222C118.152 16.2115 116.07 16.7901 114.335 17.6581V14.4178C114.335 4.87029 109.593 0.00976562 100.051 0.00976562H84.5515C74.9512 0.00976562 70.2089 4.87029 70.2089 14.4178V37.1002C69.2258 36.9845 68.1848 36.9266 67.0281 36.9266H40.3094C39.1528 36.9266 38.0539 36.9845 37.0708 37.1002V30.7931C37.0708 21.1878 32.3285 16.3272 22.7861 16.3272H14.3425C4.74228 16.3272 0 21.1878 0 30.7931V114.232C0 123.78 4.74228 128.64 14.3425 128.64H100.051C109.593 128.64 114.335 123.78 114.335 114.232V89.1194L117.343 116.084ZM86.2286 11.0617H98.3735C101.67 11.0617 103.289 12.7976 103.289 15.9222V112.67C103.289 115.852 101.67 117.588 98.3735 117.588H81.3128V15.9222C81.3128 12.7976 82.9321 11.0617 86.2286 11.0617ZM128.157 113.364L119.135 32.0661C118.788 28.9415 120.234 27.2056 123.473 26.7427L131.28 25.8168C134.519 25.3539 136.37 26.9741 136.717 30.0409L145.738 111.339C146.085 114.521 144.64 116.257 141.401 116.72L133.536 117.646C130.297 118.109 128.504 116.547 128.157 113.364ZM15.9618 117.588C12.7232 117.588 11.0461 115.852 11.0461 112.67V32.2397C11.0461 29.1151 12.7232 27.437 15.9618 27.437H21.0511C24.4054 27.437 25.9669 29.1151 25.9669 32.2397V117.588H15.9618ZM41.9866 47.9785H65.2932C68.6475 47.9785 70.2089 49.6566 70.2089 52.7812V117.588H37.0708V52.7812C37.0708 49.6566 38.6901 47.9785 41.9866 47.9785ZM45.5722 62.5601H61.9389C64.0208 62.5601 65.6402 60.8821 65.6402 58.799C65.6402 56.7159 64.0208 55.0957 61.9389 55.0957H45.5722C43.3746 55.0957 41.8131 56.7159 41.8131 58.799C41.8131 60.8821 43.4324 62.5601 45.5722 62.5601ZM45.5722 110.529H61.9389C64.0208 110.529 65.6402 108.851 65.6402 106.71C65.6402 104.685 64.0208 103.007 61.9389 103.007H45.5722C43.4324 103.007 41.8131 104.685 41.8131 106.71C41.8131 108.851 43.3746 110.529 45.5722 110.529Z" fill="#999999"/>
</svg>
