<svg width="35" height="30" viewBox="0 0 35 30" fill="none" xmlns="http://www.w3.org/2000/svg">
<path d="M4.72414 27.3416H10.3276V28.7079C10.3276 29.4653 10.9483 30 11.8276 30C12.7069 30 13.3276 29.4653 13.3276 28.7079V27.3416H16.0862V28.7079C16.0862 29.4653 16.7069 30 17.5862 30C18.4655 30 19.0862 29.4653 19.0862 28.7079V27.3416H21.8621V28.7079C21.8621 29.4653 22.4828 30 23.3621 30C24.2414 30 24.8621 29.4653 24.8621 28.7079V27.3416H30.431C31.3103 27.3416 31.8966 26.8366 31.8966 26.0792V21.2228H33.5C34.3793 21.2228 35 20.6881 35 19.9307C35 19.1733 34.3793 18.6386 33.5 18.6386H31.8966V16.2772H33.5C34.3793 16.2772 35 15.7426 35 14.9851C35 14.2277 34.3793 13.6931 33.5 13.6931H31.8966V11.3168H33.5C34.3793 11.3168 35 10.7822 35 10.0248C35 9.26733 34.3793 8.73267 33.5 8.73267H31.8966V3.93564C31.8966 3.17822 31.3103 2.65842 30.431 2.65842H24.8276V1.29208C24.8276 0.534653 24.2069 0 23.3276 0C22.4483 0 21.8276 0.534653 21.8276 1.29208V2.65842H19.0862V1.29208C19.0862 0.534653 18.4655 0 17.5862 0C16.7069 0 16.0862 0.534653 16.0862 1.29208V2.65842H13.3276V1.29208C13.3276 0.534653 12.7069 0 11.8276 0C10.9483 0 10.3276 0.534653 10.3276 1.29208V2.65842H4.72414C3.84483 2.65842 3.25862 3.17822 3.25862 3.93564V8.74752H1.5C0.62069 8.74752 0 9.28218 0 10.0396C0 10.797 0.62069 11.3317 1.5 11.3317H3.25862V13.7079H1.5C0.62069 13.7079 0 14.2426 0 15C0 15.7574 0.62069 16.2921 1.5 16.2921H3.25862V18.6535H1.5C0.62069 18.6535 0 19.1881 0 19.9455C0 20.703 0.62069 21.2376 1.5 21.2376H3.25862V26.0792C3.25862 26.8366 3.84483 27.3416 4.72414 27.3416ZM11.1207 21.7129C10.2241 21.7129 9.77586 21.3267 9.77586 20.5396V9.4604C9.77586 8.67327 10.2241 8.28713 11.1207 8.28713H24.0345C24.931 8.28713 25.3793 8.67327 25.3793 9.4604V20.5396C25.3793 21.3267 24.931 21.7129 24.0345 21.7129H11.1207ZM12.8448 19.4406H22.3103C22.569 19.4406 22.7241 19.2921 22.7241 19.0842V10.9158C22.7241 10.7079 22.569 10.5594 22.3103 10.5594H12.8448C12.5862 10.5594 12.431 10.7079 12.431 10.9158V19.0842C12.431 19.2921 12.5862 19.4406 12.8448 19.4406Z" fill="white"/>
</svg>
