<svg width="36" height="30" viewBox="0 0 36 30" fill="none" xmlns="http://www.w3.org/2000/svg">
<path d="M19.4102 30C25.6485 30 29.8263 27.7182 29.8263 24.3101C29.8263 21.3554 27.4816 20.7411 27.4816 19.0151C27.4816 16.6455 35.6667 16.2652 35.6667 10.1219C35.6667 4.02243 29.5563 0 20.4475 0C8.62452 0 0.666748 6.15797 0.666748 15.2413C0.666748 24.0761 8.22663 30 19.4102 30ZM20.8596 9.43442C19.538 9.43442 18.4296 8.3374 18.4296 6.96246C18.4296 5.57289 19.538 4.46124 20.8596 4.46124C22.2096 4.46124 23.2754 5.57289 23.2754 6.96246C23.2754 8.3374 22.2096 9.43442 20.8596 9.43442ZM13.1008 11.8333C11.4382 11.8333 10.0882 10.4729 10.0882 8.73233C10.0882 7.03559 11.4382 5.68991 13.1008 5.68991C14.7492 5.68991 16.0991 7.03559 16.0991 8.73233C16.0991 10.4729 14.7492 11.8333 13.1008 11.8333ZM27.7658 10.707C26.6716 10.707 25.7764 9.81472 25.7764 8.68844C25.7764 7.57679 26.6716 6.65529 27.7658 6.65529C28.8458 6.65529 29.7126 7.60605 29.7126 8.68844C29.7126 9.78547 28.8458 10.707 27.7658 10.707ZM7.50191 17.1136C6.18035 17.1136 5.10037 15.9873 5.10037 14.627C5.10037 13.296 6.22298 12.1697 7.50191 12.1697C8.82347 12.1697 9.88924 13.2667 9.88924 14.627C9.88924 15.9873 8.80926 17.1136 7.50191 17.1136ZM19.197 24.3247C17.0086 24.3247 15.2181 22.4817 15.2181 20.2145C15.2181 17.962 17.0086 16.1043 19.197 16.1043C21.3996 16.1043 23.1901 17.962 23.1901 20.2145C23.1901 22.511 21.4422 24.3247 19.197 24.3247Z" fill="white"/>
</svg>
