<svg width="63" height="30" viewBox="0 0 63 30" fill="none" xmlns="http://www.w3.org/2000/svg">
<path d="M31.5246 14.5752C35.1119 14.5752 38.1423 11.4652 38.1423 7.4414C38.1423 3.51382 35.0955 0.5 31.5246 0.5C27.9536 0.5 24.9069 3.56191 24.9233 7.47347C24.9233 11.4652 27.9373 14.5752 31.5246 14.5752ZM12.556 14.9439C15.6847 14.9439 18.3219 12.2186 18.3219 8.72388C18.3219 5.29326 15.6683 2.68021 12.556 2.68021C9.46011 2.68021 6.79009 5.34135 6.80647 8.75594C6.80647 12.2186 9.44373 14.9439 12.556 14.9439ZM50.444 14.9439C53.5563 14.9439 56.1935 12.2186 56.1935 8.75594C56.2099 5.34135 53.5399 2.68021 50.444 2.68021C47.3481 2.68021 44.6781 5.29326 44.6781 8.72388C44.6781 12.2186 47.3317 14.9439 50.444 14.9439ZM3.53038 29.5H15.8157C14.063 27.0473 15.9631 22.2059 19.6651 19.3524C17.8633 18.2142 15.5045 17.3806 12.556 17.3806C5.23395 17.3806 0.5 22.6548 0.5 26.9992C0.5 28.5862 1.31902 29.5 3.53038 29.5ZM59.4696 29.5C61.681 29.5 62.5 28.5862 62.5 26.9992C62.5 22.6548 57.7661 17.3806 50.444 17.3806C47.4955 17.3806 45.1531 18.2142 43.3513 19.3524C47.0532 22.2059 48.9534 27.0473 47.2007 29.5H59.4696ZM21.3032 29.484H41.7296C44.4324 29.484 45.3661 28.6824 45.3661 27.2076C45.3661 23.0876 40.0096 17.4127 31.5246 17.4127C23.0231 17.4127 17.6831 23.0876 17.6831 27.2076C17.6831 28.6824 18.6168 29.484 21.3032 29.484Z" fill="white"/>
</svg>
