<svg width="36" height="30" viewBox="0 0 36 30" fill="none" xmlns="http://www.w3.org/2000/svg">
<path d="M11.8752 4.75892H28.1975V4.57088C28.1559 1.5622 26.604 0 23.6666 0H4.87799C1.88511 0 0.333252 1.60559 0.333252 4.70106V18.4426C0.333252 21.5092 1.8574 23.1003 4.80871 23.1292H5.30752V11.5718C5.30752 7.30473 7.77387 4.75892 11.8752 4.75892ZM11.8752 30H30.7885C33.7814 30 35.3333 28.3944 35.3333 25.3134V11.5718C35.3333 8.47637 33.7814 6.87078 30.7885 6.87078H11.8752C8.88234 6.87078 7.33048 8.47637 7.33048 11.5718V25.3134C7.33048 28.4089 8.88234 30 11.8752 30ZM17.3622 23.621V13.2642C17.3622 12.5699 18.0688 12.2806 18.6092 12.6278L26.9504 17.7483C27.477 18.0665 27.4908 18.8187 26.9643 19.1514L18.6092 24.2575C18.0688 24.5902 17.3622 24.3009 17.3622 23.621Z" fill="white"/>
</svg>
