<svg width="35" height="30" viewBox="0 0 35 30" fill="none" xmlns="http://www.w3.org/2000/svg">
<path d="M9.46501 30C10.1129 30 10.6185 29.7159 11.3928 29.0625L17.2077 24.3466H27.5734C32.3296 24.3608 35 21.9034 35 17.6847V6.66193C35 2.44318 32.3296 0 27.5734 0H7.42664C2.67043 0 0 2.44318 0 6.66193V17.6847C0 21.9034 2.73363 24.3466 7.31603 24.3466H7.94808V28.4659C7.94808 29.3892 8.51693 30 9.46501 30ZM8.34311 11.8182C7.07901 11.8182 6.46275 11.2784 6.46275 10.1705V7.41477C6.46275 6.29261 7.07901 5.75284 8.34311 5.75284H15.2325C16.465 5.75284 17.0971 6.29261 17.0971 7.41477V10.1705C17.0971 11.2784 16.465 11.8182 15.2325 11.8182H8.34311ZM21.6321 17.6562C20.3837 17.6562 19.7675 17.1307 19.7675 15.9943V8.40909C19.7675 7.30114 20.3837 6.74716 21.6321 6.74716H26.5305C27.7788 6.74716 28.395 7.30114 28.395 8.40909V15.9943C28.395 17.1307 27.7788 17.6562 26.5305 17.6562H21.6321ZM10.1919 18.5653C8.94357 18.5653 8.32731 18.0256 8.32731 16.9034V15.0426C8.32731 13.9347 8.94357 13.3807 10.1919 13.3807H16.149C17.3973 13.3807 17.9977 13.9347 17.9977 15.0426V16.9034C17.9977 18.0256 17.3973 18.5653 16.149 18.5653H10.1919Z" fill="white"/>
</svg>
