<svg width="35" height="30" viewBox="0 0 35 30" fill="none" xmlns="http://www.w3.org/2000/svg">
<path d="M32.8125 8.57143H2.1875C0.979385 8.57143 0 7.61203 0 6.42857V2.14286C0 0.959397 0.979385 0 2.1875 0H32.8125C34.0206 0 35 0.959397 35 2.14286V6.42857C35 7.61203 34.0206 8.57143 32.8125 8.57143ZM29.5312 2.67857C28.6251 2.67857 27.8906 3.3981 27.8906 4.28571C27.8906 5.17333 28.6251 5.89286 29.5312 5.89286C30.4374 5.89286 31.1719 5.17333 31.1719 4.28571C31.1719 3.3981 30.4374 2.67857 29.5312 2.67857ZM25.1562 2.67857C24.2501 2.67857 23.5156 3.3981 23.5156 4.28571C23.5156 5.17333 24.2501 5.89286 25.1562 5.89286C26.0624 5.89286 26.7969 5.17333 26.7969 4.28571C26.7969 3.3981 26.0624 2.67857 25.1562 2.67857ZM32.8125 19.2857H2.1875C0.979385 19.2857 0 18.3263 0 17.1429V12.8571C0 11.6737 0.979385 10.7143 2.1875 10.7143H32.8125C34.0206 10.7143 35 11.6737 35 12.8571V17.1429C35 18.3263 34.0206 19.2857 32.8125 19.2857ZM29.5312 13.3929C28.6251 13.3929 27.8906 14.1124 27.8906 15C27.8906 15.8876 28.6251 16.6071 29.5312 16.6071C30.4374 16.6071 31.1719 15.8876 31.1719 15C31.1719 14.1124 30.4374 13.3929 29.5312 13.3929ZM25.1562 13.3929C24.2501 13.3929 23.5156 14.1124 23.5156 15C23.5156 15.8876 24.2501 16.6071 25.1562 16.6071C26.0624 16.6071 26.7969 15.8876 26.7969 15C26.7969 14.1124 26.0624 13.3929 25.1562 13.3929ZM32.8125 30H2.1875C0.979385 30 0 29.0406 0 27.8571V23.5714C0 22.388 0.979385 21.4286 2.1875 21.4286H32.8125C34.0206 21.4286 35 22.388 35 23.5714V27.8571C35 29.0406 34.0206 30 32.8125 30ZM29.5312 24.1071C28.6251 24.1071 27.8906 24.8267 27.8906 25.7143C27.8906 26.6019 28.6251 27.3214 29.5312 27.3214C30.4374 27.3214 31.1719 26.6019 31.1719 25.7143C31.1719 24.8267 30.4374 24.1071 29.5312 24.1071ZM25.1562 24.1071C24.2501 24.1071 23.5156 24.8267 23.5156 25.7143C23.5156 26.6019 24.2501 27.3214 25.1562 27.3214C26.0624 27.3214 26.7969 26.6019 26.7969 25.7143C26.7969 24.8267 26.0624 24.1071 25.1562 24.1071Z" fill="white"/>
</svg>
