<svg width="36" height="30" viewBox="0 0 36 30" fill="none" xmlns="http://www.w3.org/2000/svg">
<path d="M22.5417 20.3571C22.5417 20.9491 22.0523 21.4286 21.448 21.4286H14.8855C14.2812 21.4286 13.7917 20.9491 13.7917 20.3571V17.1429H0.666748V26.7857C0.666748 28.5 2.198 30 3.948 30H32.3855C34.1355 30 35.6667 28.5 35.6667 26.7857V17.1429H22.5417V20.3571ZM32.3855 6.42857H26.9167V3.21429C26.9167 1.5 25.3855 0 23.6355 0H12.698C10.948 0 9.41675 1.5 9.41675 3.21429V6.42857H3.948C2.198 6.42857 0.666748 7.92857 0.666748 9.64286V15H35.6667V9.64286C35.6667 7.92857 34.1355 6.42857 32.3855 6.42857ZM22.5417 6.42857H13.7917V4.28571H22.5417V6.42857Z" fill="white"/>
</svg>
